<svg width="418" height="46" viewBox="0 0 418 46" fill="none" xmlns="http://www.w3.org/2000/svg">
<path d="M0 15C0 6.71573 6.71573 0 15 0H403C411.284 0 418 6.71573 418 15V31C418 39.2843 411.284 46 403 46H15C6.71572 46 0 39.2843 0 31V15Z" fill="#E02847"/>
<g clip-path="url(#clip0_6_133)">
<path d="M101.922 4.39517V3H87.2842C87.1241 3 72.5091 3.61754 72.5091 17.0203C72.5091 21.8234 74.1559 25.2999 77.3808 27.3812C79.828 28.9593 82.5955 29.2795 84.2194 29.3024C84.2651 30.2402 84.471 31.5667 85.1571 33.0076C79.9424 33.305 69.7188 35.1804 69.7188 45.0153C69.7188 56.4053 82.0008 57 84.471 57H84.7683H85.2257C86.7581 57 90.7607 56.817 94.4659 55.0102C99.429 52.6086 101.945 48.4231 101.945 42.5909C101.945 36.8958 98.0567 33.4879 95.4722 31.2236C94.3287 30.2173 92.9335 28.9822 92.9335 28.3418C92.9335 27.6557 93.7569 26.9238 94.809 25.986C96.6616 24.3393 99.1088 21.5032 99.1088 15.8996C99.1088 12.7662 98.903 9.79289 96.7302 7.55146C98.8115 7.23126 101.922 6.7967 101.922 4.39517ZM87.7645 23.5616C85.0885 24.2935 82.1381 21.4117 81.1088 17.4549C80.5599 15.3736 80.6057 13.6125 81.2232 11.8971C81.7721 10.3418 82.7327 9.31258 83.8992 8.99238C84.1736 8.92376 84.4481 8.87802 84.7226 8.87802C87.5358 8.87802 89.5485 9.81576 90.875 14.4816C91.5612 16.8602 91.3096 19.4447 90.2118 21.3888C89.5714 22.5324 88.6794 23.31 87.7645 23.5616ZM77.8611 44.878C77.7467 43.2313 78.5015 41.6074 79.9653 40.2808C81.5205 38.8856 83.6705 38.0165 86.0034 37.8335C86.2778 37.8107 86.5752 37.8107 86.8496 37.8107C91.058 37.8107 94.1457 40.1893 94.3744 43.6201C94.5803 47.0966 91.5383 49.6811 86.8039 50.0242C81.795 50.3672 78.0669 48.1944 77.8611 44.878Z" fill="white"/>
</g>
<path d="M143.107 20.6172C143.061 20.183 142.865 19.8449 142.52 19.603C142.179 19.361 141.735 19.2401 141.188 19.2401C140.803 19.2401 140.474 19.2981 140.199 19.4141C139.924 19.5301 139.713 19.6875 139.567 19.8864C139.421 20.0852 139.347 20.3123 139.343 20.5675C139.343 20.7796 139.392 20.9635 139.488 21.1193C139.587 21.2751 139.721 21.4077 139.89 21.517C140.059 21.6231 140.247 21.7126 140.452 21.7855C140.658 21.8584 140.865 21.9197 141.074 21.9695L142.028 22.2081C142.413 22.2976 142.782 22.4186 143.137 22.571C143.495 22.7235 143.815 22.9157 144.096 23.1477C144.381 23.3797 144.607 23.6598 144.772 23.9879C144.938 24.3161 145.021 24.7005 145.021 25.1413C145.021 25.7379 144.869 26.2633 144.564 26.7173C144.259 27.1681 143.818 27.5211 143.241 27.7763C142.668 28.0282 141.973 28.1541 141.158 28.1541C140.366 28.1541 139.678 28.0315 139.095 27.7862C138.515 27.541 138.061 27.183 137.733 26.7124C137.408 26.2417 137.232 25.6683 137.206 24.9922H139.02C139.047 25.3468 139.156 25.6418 139.348 25.8771C139.541 26.1125 139.791 26.2881 140.099 26.4041C140.411 26.5201 140.759 26.5781 141.143 26.5781C141.544 26.5781 141.896 26.5185 142.197 26.3991C142.502 26.2765 142.741 26.1075 142.913 25.892C143.085 25.6733 143.173 25.4181 143.177 25.1264C143.173 24.8613 143.095 24.6425 142.943 24.4702C142.79 24.2945 142.577 24.1487 142.302 24.0327C142.03 23.9134 141.712 23.8073 141.347 23.7145L140.189 23.4162C139.35 23.2008 138.687 22.8743 138.2 22.4368C137.716 21.996 137.474 21.411 137.474 20.6818C137.474 20.0819 137.637 19.5566 137.961 19.1058C138.29 18.6551 138.735 18.3054 139.299 18.0568C139.862 17.8049 140.5 17.679 141.213 17.679C141.935 17.679 142.568 17.8049 143.112 18.0568C143.659 18.3054 144.088 18.6518 144.4 19.0959C144.711 19.5367 144.872 20.0438 144.882 20.6172H143.107ZM146.586 28V20.3636H148.386V28H146.586ZM147.491 19.2798C147.206 19.2798 146.96 19.1854 146.755 18.9964C146.549 18.8042 146.447 18.5739 146.447 18.3054C146.447 18.0336 146.549 17.8033 146.755 17.6143C146.96 17.4221 147.206 17.326 147.491 17.326C147.779 17.326 148.024 17.4221 148.226 17.6143C148.432 17.8033 148.535 18.0336 148.535 18.3054C148.535 18.5739 148.432 18.8042 148.226 18.9964C148.024 19.1854 147.779 19.2798 147.491 19.2798ZM153.557 31.0227C152.911 31.0227 152.356 30.9349 151.892 30.7592C151.428 30.5869 151.055 30.3549 150.773 30.0632C150.491 29.7715 150.296 29.4484 150.187 29.0938L151.807 28.701C151.88 28.8501 151.986 28.9976 152.125 29.1435C152.265 29.2926 152.452 29.4152 152.687 29.5114C152.926 29.6108 153.226 29.6605 153.587 29.6605C154.098 29.6605 154.52 29.5362 154.855 29.2876C155.19 29.0424 155.357 28.638 155.357 28.0746V26.6278H155.267C155.175 26.8134 155.039 27.004 154.86 27.1996C154.684 27.3951 154.45 27.5592 154.159 27.6918C153.87 27.8243 153.508 27.8906 153.07 27.8906C152.483 27.8906 151.951 27.7531 151.474 27.478C151 27.1996 150.622 26.7853 150.341 26.2351C150.062 25.6816 149.923 24.9889 149.923 24.157C149.923 23.3184 150.062 22.6108 150.341 22.0341C150.622 21.4541 151.002 21.0149 151.479 20.7166C151.956 20.415 152.488 20.2642 153.075 20.2642C153.522 20.2642 153.89 20.3404 154.179 20.4929C154.47 20.642 154.702 20.8227 154.875 21.0348C155.047 21.2436 155.178 21.4408 155.267 21.6264H155.367V20.3636H157.142V28.1243C157.142 28.7772 156.986 29.3175 156.674 29.745C156.363 30.1726 155.937 30.4924 155.397 30.7045C154.857 30.9167 154.243 31.0227 153.557 31.0227ZM153.572 26.4787C153.953 26.4787 154.278 26.3859 154.547 26.2003C154.815 26.0147 155.019 25.7479 155.158 25.3999C155.297 25.0518 155.367 24.6342 155.367 24.147C155.367 23.6664 155.297 23.2455 155.158 22.8842C155.022 22.523 154.82 22.2429 154.552 22.044C154.286 21.8419 153.96 21.7408 153.572 21.7408C153.171 21.7408 152.836 21.8452 152.568 22.054C152.299 22.2628 152.097 22.5495 151.961 22.9141C151.825 23.2753 151.758 23.6863 151.758 24.147C151.758 24.6143 151.825 25.0237 151.961 25.375C152.101 25.723 152.304 25.9948 152.573 26.1903C152.845 26.3826 153.178 26.4787 153.572 26.4787ZM160.786 23.5256V28H158.986V20.3636H160.706V21.6612H160.796C160.972 21.2337 161.252 20.8939 161.636 20.642C162.024 20.3902 162.503 20.2642 163.073 20.2642C163.6 20.2642 164.059 20.3769 164.45 20.6023C164.844 20.8277 165.149 21.1541 165.365 21.5817C165.584 22.0092 165.691 22.5279 165.688 23.1378V28H163.888V23.4162C163.888 22.9058 163.756 22.5064 163.491 22.218C163.229 21.9297 162.866 21.7855 162.402 21.7855C162.087 21.7855 161.807 21.8551 161.562 21.9943C161.32 22.1302 161.129 22.3274 160.99 22.5859C160.854 22.8445 160.786 23.1577 160.786 23.5256ZM170.99 28V20.3636H172.79V28H170.99ZM171.895 19.2798C171.61 19.2798 171.365 19.1854 171.159 18.9964C170.954 18.8042 170.851 18.5739 170.851 18.3054C170.851 18.0336 170.954 17.8033 171.159 17.6143C171.365 17.4221 171.61 17.326 171.895 17.326C172.183 17.326 172.429 17.4221 172.631 17.6143C172.836 17.8033 172.939 18.0336 172.939 18.3054C172.939 18.5739 172.836 18.8042 172.631 18.9964C172.429 19.1854 172.183 19.2798 171.895 19.2798ZM176.44 23.5256V28H174.641V20.3636H176.361V21.6612H176.45C176.626 21.2337 176.906 20.8939 177.29 20.642C177.678 20.3902 178.157 20.2642 178.727 20.2642C179.254 20.2642 179.713 20.3769 180.104 20.6023C180.499 20.8277 180.804 21.1541 181.019 21.5817C181.238 22.0092 181.346 22.5279 181.342 23.1378V28H179.543V23.4162C179.543 22.9058 179.41 22.5064 179.145 22.218C178.883 21.9297 178.52 21.7855 178.056 21.7855C177.741 21.7855 177.461 21.8551 177.216 21.9943C176.974 22.1302 176.783 22.3274 176.644 22.5859C176.508 22.8445 176.44 23.1577 176.44 23.5256ZM188.22 28L186.063 20.3636H187.897L189.24 25.733H189.309L190.681 20.3636H192.496L193.868 25.7031H193.943L195.265 20.3636H197.105L194.942 28H193.068L191.636 22.8395H191.532L190.1 28H188.22ZM198.361 28V20.3636H200.161V28H198.361ZM199.266 19.2798C198.981 19.2798 198.736 19.1854 198.53 18.9964C198.325 18.8042 198.222 18.5739 198.222 18.3054C198.222 18.0336 198.325 17.8033 198.53 17.6143C198.736 17.4221 198.981 17.326 199.266 17.326C199.554 17.326 199.8 17.4221 200.002 17.6143C200.207 17.8033 200.31 18.0336 200.31 18.3054C200.31 18.5739 200.207 18.8042 200.002 18.9964C199.8 19.1854 199.554 19.2798 199.266 19.2798ZM205.825 20.3636V21.7557H201.435V20.3636H205.825ZM202.519 18.5341H204.318V25.7031C204.318 25.9451 204.355 26.1307 204.428 26.2599C204.504 26.3859 204.603 26.4721 204.726 26.5185C204.849 26.5649 204.985 26.5881 205.134 26.5881C205.246 26.5881 205.349 26.5798 205.442 26.5632C205.538 26.5466 205.611 26.5317 205.661 26.5185L205.964 27.9254C205.868 27.9586 205.73 27.995 205.551 28.0348C205.376 28.0746 205.16 28.0978 204.905 28.1044C204.454 28.1177 204.048 28.0497 203.687 27.9006C203.326 27.7481 203.039 27.5128 202.827 27.1946C202.618 26.8764 202.515 26.4787 202.519 26.0014V18.5341ZM209.294 23.5256V28H207.494V17.8182H209.254V21.6612H209.343C209.522 21.2304 209.799 20.8906 210.174 20.642C210.552 20.3902 211.032 20.2642 211.616 20.2642C212.146 20.2642 212.608 20.3752 213.003 20.5973C213.397 20.8194 213.702 21.1442 213.917 21.5717C214.136 21.9993 214.245 22.5213 214.245 23.1378V28H212.446V23.4162C212.446 22.9025 212.313 22.5031 212.048 22.218C211.786 21.9297 211.418 21.7855 210.944 21.7855C210.626 21.7855 210.341 21.8551 210.089 21.9943C209.841 22.1302 209.645 22.3274 209.503 22.5859C209.363 22.8445 209.294 23.1577 209.294 23.5256ZM226.453 21.0696C226.37 20.8011 226.256 20.5608 226.11 20.3487C225.968 20.1333 225.795 19.9493 225.593 19.7969C225.394 19.6444 225.166 19.5301 224.907 19.4538C224.649 19.3743 224.367 19.3345 224.062 19.3345C223.515 19.3345 223.028 19.4721 222.6 19.7472C222.173 20.0223 221.836 20.4266 221.591 20.9602C221.349 21.4905 221.228 22.1368 221.228 22.8991C221.228 23.6681 221.349 24.3194 221.591 24.853C221.833 25.3866 222.169 25.7926 222.6 26.071C223.031 26.3461 223.532 26.4837 224.102 26.4837C224.619 26.4837 225.066 26.3842 225.444 26.1854C225.825 25.9865 226.118 25.7048 226.324 25.3402C226.529 24.9723 226.632 24.5414 226.632 24.0476L227.05 24.1122H224.286V22.6705H228.417V23.8935C228.417 24.7652 228.231 25.5192 227.86 26.1555C227.489 26.7919 226.979 27.2824 226.329 27.6271C225.679 27.9685 224.934 28.1392 224.092 28.1392C223.154 28.1392 222.33 27.9287 221.621 27.5078C220.915 27.0836 220.363 26.482 219.965 25.7031C219.571 24.9209 219.374 23.9929 219.374 22.919C219.374 22.0971 219.49 21.3629 219.722 20.7166C219.957 20.0703 220.285 19.5218 220.706 19.071C221.127 18.617 221.621 18.2723 222.188 18.0369C222.754 17.7983 223.371 17.679 224.037 17.679C224.6 17.679 225.126 17.7618 225.613 17.9276C226.1 18.09 226.533 18.322 226.911 18.6236C227.292 18.9252 227.605 19.2831 227.85 19.6974C228.095 20.1117 228.256 20.5691 228.332 21.0696H226.453ZM233.452 28.1491C232.706 28.1491 232.06 27.9851 231.513 27.657C230.966 27.3288 230.542 26.8698 230.24 26.2798C229.942 25.6899 229.793 25.0005 229.793 24.2116C229.793 23.4228 229.942 22.7318 230.24 22.1385C230.542 21.5452 230.966 21.0845 231.513 20.7564C232.06 20.4283 232.706 20.2642 233.452 20.2642C234.198 20.2642 234.844 20.4283 235.391 20.7564C235.938 21.0845 236.36 21.5452 236.659 22.1385C236.96 22.7318 237.111 23.4228 237.111 24.2116C237.111 25.0005 236.96 25.6899 236.659 26.2798C236.36 26.8698 235.938 27.3288 235.391 27.657C234.844 27.9851 234.198 28.1491 233.452 28.1491ZM233.462 26.7074C233.866 26.7074 234.204 26.5964 234.476 26.3743C234.748 26.1489 234.95 25.8473 235.083 25.4695C235.219 25.0916 235.286 24.6707 235.286 24.2067C235.286 23.7393 235.219 23.3168 235.083 22.9389C234.95 22.5578 234.748 22.2545 234.476 22.0291C234.204 21.8037 233.866 21.6911 233.462 21.6911C233.048 21.6911 232.703 21.8037 232.428 22.0291C232.156 22.2545 231.952 22.5578 231.816 22.9389C231.684 23.3168 231.617 23.7393 231.617 24.2067C231.617 24.6707 231.684 25.0916 231.816 25.4695C231.952 25.8473 232.156 26.1489 232.428 26.3743C232.703 26.5964 233.048 26.7074 233.462 26.7074ZM241.97 28.1491C241.224 28.1491 240.578 27.9851 240.031 27.657C239.484 27.3288 239.06 26.8698 238.758 26.2798C238.46 25.6899 238.31 25.0005 238.31 24.2116C238.31 23.4228 238.46 22.7318 238.758 22.1385C239.06 21.5452 239.484 21.0845 240.031 20.7564C240.578 20.4283 241.224 20.2642 241.97 20.2642C242.715 20.2642 243.362 20.4283 243.908 20.7564C244.455 21.0845 244.878 21.5452 245.176 22.1385C245.478 22.7318 245.629 23.4228 245.629 24.2116C245.629 25.0005 245.478 25.6899 245.176 26.2798C244.878 26.8698 244.455 27.3288 243.908 27.657C243.362 27.9851 242.715 28.1491 241.97 28.1491ZM241.979 26.7074C242.384 26.7074 242.722 26.5964 242.994 26.3743C243.265 26.1489 243.468 25.8473 243.6 25.4695C243.736 25.0916 243.804 24.6707 243.804 24.2067C243.804 23.7393 243.736 23.3168 243.6 22.9389C243.468 22.5578 243.265 22.2545 242.994 22.0291C242.722 21.8037 242.384 21.6911 241.979 21.6911C241.565 21.6911 241.22 21.8037 240.945 22.0291C240.674 22.2545 240.47 22.5578 240.334 22.9389C240.201 23.3168 240.135 23.7393 240.135 24.2067C240.135 24.6707 240.201 25.0916 240.334 25.4695C240.47 25.8473 240.674 26.1489 240.945 26.3743C241.22 26.5964 241.565 26.7074 241.979 26.7074ZM250.477 31.0227C249.831 31.0227 249.276 30.9349 248.812 30.7592C248.348 30.5869 247.975 30.3549 247.693 30.0632C247.411 29.7715 247.216 29.4484 247.106 29.0938L248.727 28.701C248.8 28.8501 248.906 28.9976 249.045 29.1435C249.185 29.2926 249.372 29.4152 249.607 29.5114C249.846 29.6108 250.146 29.6605 250.507 29.6605C251.017 29.6605 251.44 29.5362 251.775 29.2876C252.11 29.0424 252.277 28.638 252.277 28.0746V26.6278H252.187C252.095 26.8134 251.959 27.004 251.78 27.1996C251.604 27.3951 251.37 27.5592 251.079 27.6918C250.79 27.8243 250.427 27.8906 249.99 27.8906C249.403 27.8906 248.871 27.7531 248.394 27.478C247.92 27.1996 247.542 26.7853 247.261 26.2351C246.982 25.6816 246.843 24.9889 246.843 24.157C246.843 23.3184 246.982 22.6108 247.261 22.0341C247.542 21.4541 247.922 21.0149 248.399 20.7166C248.876 20.415 249.408 20.2642 249.995 20.2642C250.442 20.2642 250.81 20.3404 251.099 20.4929C251.39 20.642 251.622 20.8227 251.795 21.0348C251.967 21.2436 252.098 21.4408 252.187 21.6264H252.287V20.3636H254.062V28.1243C254.062 28.7772 253.906 29.3175 253.594 29.745C253.283 30.1726 252.857 30.4924 252.317 30.7045C251.776 30.9167 251.163 31.0227 250.477 31.0227ZM250.492 26.4787C250.873 26.4787 251.198 26.3859 251.467 26.2003C251.735 26.0147 251.939 25.7479 252.078 25.3999C252.217 25.0518 252.287 24.6342 252.287 24.147C252.287 23.6664 252.217 23.2455 252.078 22.8842C251.942 22.523 251.74 22.2429 251.472 22.044C251.206 21.8419 250.88 21.7408 250.492 21.7408C250.091 21.7408 249.756 21.8452 249.488 22.054C249.219 22.2628 249.017 22.5495 248.881 22.9141C248.745 23.2753 248.677 23.6863 248.677 24.147C248.677 24.6143 248.745 25.0237 248.881 25.375C249.021 25.723 249.224 25.9948 249.493 26.1903C249.765 26.3826 250.098 26.4787 250.492 26.4787ZM257.706 17.8182V28H255.906V17.8182H257.706ZM262.937 28.1491C262.172 28.1491 261.51 27.9901 260.954 27.6719C260.4 27.3504 259.974 26.8963 259.676 26.3097C259.378 25.7197 259.228 25.0253 259.228 24.2266C259.228 23.4411 259.378 22.7517 259.676 22.1584C259.977 21.5618 260.398 21.0978 260.939 20.7663C261.479 20.4316 262.114 20.2642 262.843 20.2642C263.313 20.2642 263.758 20.3404 264.175 20.4929C264.596 20.642 264.967 20.8741 265.289 21.1889C265.614 21.5038 265.869 21.9048 266.054 22.392C266.24 22.8759 266.333 23.4527 266.333 24.1222V24.674H260.074V23.4609H264.608C264.604 23.1162 264.53 22.8097 264.384 22.5412C264.238 22.2694 264.034 22.0556 263.772 21.8999C263.514 21.7441 263.212 21.6662 262.868 21.6662C262.5 21.6662 262.177 21.7557 261.898 21.9347C261.62 22.1103 261.403 22.3423 261.247 22.6307C261.094 22.9157 261.017 23.2289 261.013 23.5703V24.6293C261.013 25.0734 261.094 25.4545 261.257 25.7727C261.419 26.0876 261.646 26.3295 261.938 26.4986C262.23 26.6643 262.571 26.7472 262.962 26.7472C263.224 26.7472 263.461 26.7107 263.673 26.6378C263.885 26.5616 264.069 26.4505 264.225 26.3047C264.381 26.1589 264.498 25.9782 264.578 25.7628L266.258 25.9517C266.152 26.3958 265.95 26.7836 265.652 27.1151C265.357 27.4432 264.979 27.6984 264.518 27.8807C264.057 28.0597 263.531 28.1491 262.937 28.1491ZM271.408 17.8182H273.665L276.687 25.196H276.807L279.829 17.8182H282.087V28H280.317V21.005H280.222L277.408 27.9702H276.086L273.272 20.9901H273.177V28H271.408V17.8182ZM286.213 28.1541C285.729 28.1541 285.293 28.0679 284.905 27.8956C284.521 27.7199 284.216 27.4614 283.991 27.12C283.769 26.7786 283.658 26.3577 283.658 25.8572C283.658 25.4264 283.737 25.0701 283.896 24.7884C284.055 24.5066 284.272 24.2812 284.547 24.1122C284.823 23.9432 285.132 23.8156 285.477 23.7294C285.825 23.6399 286.185 23.5753 286.556 23.5355C287.003 23.4891 287.366 23.4477 287.645 23.4112C287.923 23.3714 288.125 23.3118 288.251 23.2322C288.381 23.1494 288.445 23.0218 288.445 22.8494V22.8196C288.445 22.4451 288.334 22.1551 288.112 21.9496C287.89 21.7441 287.57 21.6413 287.153 21.6413C286.712 21.6413 286.362 21.7375 286.104 21.9297C285.848 22.1219 285.676 22.349 285.587 22.6108L283.906 22.3722C284.039 21.9081 284.257 21.5204 284.562 21.2088C284.867 20.8939 285.24 20.6586 285.681 20.5028C286.122 20.3438 286.609 20.2642 287.143 20.2642C287.511 20.2642 287.877 20.3073 288.241 20.3935C288.606 20.4796 288.939 20.6222 289.241 20.821C289.542 21.0166 289.784 21.2834 289.967 21.6214C290.152 21.9595 290.245 22.3821 290.245 22.8892V28H288.515V26.951H288.455C288.346 27.1631 288.192 27.362 287.993 27.5476C287.797 27.7299 287.55 27.8774 287.252 27.9901C286.957 28.0994 286.611 28.1541 286.213 28.1541ZM286.68 26.8317C287.042 26.8317 287.355 26.7604 287.62 26.6179C287.885 26.4721 288.089 26.2798 288.231 26.0412C288.377 25.8026 288.45 25.5424 288.45 25.2607V24.3608C288.394 24.4072 288.298 24.4503 288.162 24.4901C288.029 24.5298 287.88 24.5646 287.714 24.5945C287.549 24.6243 287.385 24.6508 287.222 24.674C287.06 24.6972 286.919 24.7171 286.8 24.7337C286.531 24.7701 286.291 24.8298 286.079 24.9126C285.867 24.9955 285.699 25.1115 285.577 25.2607C285.454 25.4065 285.393 25.5954 285.393 25.8274C285.393 26.1589 285.514 26.4091 285.756 26.5781C285.998 26.7472 286.306 26.8317 286.68 26.8317ZM292.055 28V20.3636H293.854V28H292.055ZM292.959 19.2798C292.674 19.2798 292.429 19.1854 292.224 18.9964C292.018 18.8042 291.915 18.5739 291.915 18.3054C291.915 18.0336 292.018 17.8033 292.224 17.6143C292.429 17.4221 292.674 17.326 292.959 17.326C293.248 17.326 293.493 17.4221 293.695 17.6143C293.901 17.8033 294.003 18.0336 294.003 18.3054C294.003 18.5739 293.901 18.8042 293.695 18.9964C293.493 19.1854 293.248 19.2798 292.959 19.2798ZM297.505 17.8182V28H295.705V17.8182H297.505Z" fill="white"/>
<defs>
<clipPath id="clip0_6_133">
<rect width="70" height="46" fill="white" transform="translate(49)"/>
</clipPath>
</defs>
</svg>
