<svg width="402" height="38" viewBox="0 0 402 38" fill="none" xmlns="http://www.w3.org/2000/svg">
<path d="M49.1364 24.1591C48.4768 24.1591 47.8935 23.9917 47.3864 23.657C46.8826 23.3222 46.4882 22.8598 46.2031 22.2699C45.9181 21.6766 45.7756 20.9922 45.7756 20.2166C45.7756 19.4344 45.9181 18.7467 46.2031 18.1534C46.4882 17.5568 46.8826 17.0928 47.3864 16.7614C47.8935 16.4266 48.4768 16.2592 49.1364 16.2592C49.7959 16.2592 50.3776 16.4266 50.8814 16.7614C51.3852 17.0961 51.7796 17.5601 52.0646 18.1534C52.353 18.7467 52.4972 19.4344 52.4972 20.2166C52.4972 20.9922 52.3546 21.6766 52.0696 22.2699C51.7846 22.8598 51.3885 23.3222 50.8814 23.657C50.3776 23.9917 49.7959 24.1591 49.1364 24.1591ZM49.1364 23.3487C49.6667 23.3487 50.1158 23.2062 50.4837 22.9212C50.8516 22.6361 51.13 22.2566 51.3189 21.7827C51.5111 21.3087 51.6072 20.7867 51.6072 20.2166C51.6072 19.6465 51.5111 19.1229 51.3189 18.6456C51.13 18.1683 50.8516 17.7855 50.4837 17.4972C50.1158 17.2088 49.6667 17.0646 49.1364 17.0646C48.6094 17.0646 48.1603 17.2088 47.7891 17.4972C47.4212 17.7855 47.1411 18.1683 46.9489 18.6456C46.7599 19.1229 46.6655 19.6465 46.6655 20.2166C46.6655 20.7867 46.7599 21.3087 46.9489 21.7827C47.1411 22.2566 47.4212 22.6361 47.7891 22.9212C48.157 23.2062 48.6061 23.3487 49.1364 23.3487ZM54.4398 24V16.3636H55.2999V17.5369H55.3645C55.517 17.1525 55.7821 16.8426 56.16 16.6072C56.5411 16.3686 56.972 16.2493 57.4526 16.2493C57.5255 16.2493 57.6067 16.2509 57.6962 16.2543C57.7857 16.2576 57.8603 16.2609 57.9199 16.2642V17.1641C57.8801 17.1574 57.8105 17.1475 57.7111 17.1342C57.6117 17.121 57.504 17.1143 57.388 17.1143C56.9902 17.1143 56.6356 17.1989 56.324 17.3679C56.0158 17.5336 55.7722 17.764 55.5932 18.0589C55.4142 18.3539 55.3248 18.6903 55.3248 19.0682V24H54.4398ZM68.4982 18.0391L67.6879 18.2678C67.6083 18.0391 67.4956 17.8319 67.3498 17.6463C67.204 17.4607 67.0134 17.3132 66.7781 17.2038C66.546 17.0945 66.2577 17.0398 65.913 17.0398C65.396 17.0398 64.9717 17.1624 64.6403 17.4077C64.3088 17.6529 64.1431 17.9695 64.1431 18.3572C64.1431 18.6854 64.2558 18.9522 64.4812 19.1577C64.7099 19.3598 65.0612 19.5206 65.5352 19.6399L66.6886 19.9233C67.3282 20.0791 67.8072 20.326 68.1254 20.6641C68.4469 21.0021 68.6076 21.4264 68.6076 21.9368C68.6076 22.3677 68.4883 22.7505 68.2496 23.0852C68.011 23.42 67.6779 23.6835 67.2504 23.8757C66.8261 24.0646 66.3339 24.1591 65.7738 24.1591C65.0281 24.1591 64.4132 23.9917 63.9293 23.657C63.4454 23.3189 63.1355 22.8317 62.9996 22.1953L63.8498 21.9865C63.9592 22.4406 64.1729 22.7836 64.4911 23.0156C64.8126 23.2476 65.2352 23.3636 65.7589 23.3636C66.3455 23.3636 66.8145 23.2327 67.1658 22.9709C67.5172 22.7057 67.6928 22.3743 67.6928 21.9766C67.6928 21.6683 67.5901 21.4098 67.3846 21.201C67.1791 20.9889 66.8675 20.8331 66.4499 20.7337L65.2021 20.4354C64.5392 20.2763 64.0487 20.0244 63.7305 19.6797C63.4123 19.335 63.2532 18.9074 63.2532 18.397C63.2532 17.9761 63.3675 17.6065 63.5962 17.2884C63.8249 16.9669 64.1398 16.715 64.5408 16.5327C64.9419 16.3504 65.3993 16.2592 65.913 16.2592C66.6123 16.2592 67.1708 16.4183 67.5884 16.7365C68.0094 17.0514 68.3126 17.4856 68.4982 18.0391ZM70.5552 24V16.3636H71.4451V24H70.5552ZM71.0076 15.0511C70.8253 15.0511 70.6696 14.9898 70.5403 14.8672C70.411 14.7412 70.3464 14.5904 70.3464 14.4148C70.3464 14.2391 70.411 14.09 70.5403 13.9673C70.6696 13.8414 70.8253 13.7784 71.0076 13.7784C71.1899 13.7784 71.3457 13.8414 71.475 13.9673C71.6042 14.09 71.6689 14.2391 71.6689 14.4148C71.6689 14.5904 71.6042 14.7412 71.475 14.8672C71.3457 14.9898 71.1899 15.0511 71.0076 15.0511ZM76.6989 27.0227C76.1785 27.0227 75.7228 26.9548 75.3317 26.8189C74.9406 26.6863 74.6108 26.504 74.3423 26.272C74.0739 26.04 73.8651 25.7798 73.7159 25.4915L74.4418 25.0142C74.5511 25.2064 74.697 25.3954 74.8793 25.581C75.0649 25.7666 75.3052 25.9207 75.6001 26.0433C75.8984 26.166 76.2647 26.2273 76.6989 26.2273C77.375 26.2273 77.9202 26.0582 78.3345 25.7202C78.7521 25.3821 78.9609 24.8568 78.9609 24.1442V22.424H78.8814C78.7786 22.656 78.6312 22.888 78.4389 23.12C78.2467 23.3487 77.9948 23.5393 77.6832 23.6918C77.375 23.8442 76.9922 23.9205 76.5348 23.9205C75.925 23.9205 75.383 23.7696 74.9091 23.468C74.4384 23.1664 74.0672 22.7356 73.7955 22.1754C73.527 21.612 73.3928 20.9408 73.3928 20.1619C73.3928 19.3897 73.5237 18.7102 73.7855 18.1236C74.0507 17.5369 74.4202 17.0795 74.8942 16.7514C75.3681 16.4233 75.92 16.2592 76.5497 16.2592C77.017 16.2592 77.4048 16.3421 77.7131 16.5078C78.0213 16.6702 78.2682 16.8724 78.4538 17.1143C78.6428 17.3563 78.7902 17.5916 78.8963 17.8203H78.9858V16.3636H79.8509V24.1989C79.8509 24.8452 79.7133 25.3771 79.4382 25.7947C79.1631 26.2124 78.7886 26.5206 78.3146 26.7195C77.8407 26.9216 77.3021 27.0227 76.6989 27.0227ZM76.6392 23.1101C77.1297 23.1101 77.549 22.9924 77.897 22.7571C78.245 22.5185 78.5118 22.1771 78.6974 21.733C78.883 21.2888 78.9759 20.7602 78.9759 20.147C78.9759 19.5504 78.8847 19.0218 78.7024 18.5611C78.5201 18.0971 78.255 17.7325 77.907 17.4673C77.5623 17.1989 77.1397 17.0646 76.6392 17.0646C76.1288 17.0646 75.6979 17.2022 75.3466 17.4773C74.9953 17.7524 74.7301 18.1236 74.5511 18.5909C74.3722 19.0549 74.2827 19.5736 74.2827 20.147C74.2827 20.7304 74.3738 21.2457 74.5561 21.6932C74.7384 22.1373 75.0052 22.4853 75.3565 22.7372C75.7079 22.9858 76.1354 23.1101 76.6392 23.1101ZM83.0787 19.2273V24H82.1937V16.3636H83.0538V17.5618H83.1333C83.3123 17.1707 83.5907 16.8575 83.9686 16.6222C84.3497 16.3835 84.8204 16.2642 85.3805 16.2642C85.8942 16.2642 86.345 16.3719 86.7328 16.5874C87.1239 16.7995 87.4271 17.1127 87.6426 17.527C87.8613 17.9413 87.9707 18.45 87.9707 19.0533V24H87.0858V19.108C87.0858 18.4815 86.9101 17.986 86.5588 17.6214C86.2108 17.2569 85.7434 17.0746 85.1568 17.0746C84.7557 17.0746 84.3994 17.1607 84.0879 17.3331C83.7763 17.5054 83.5294 17.754 83.3471 18.0788C83.1681 18.4003 83.0787 18.7831 83.0787 19.2273ZM99.0909 21.0817V16.3636H99.9759V24H99.0909V22.7322H99.0213C98.8423 23.1233 98.5589 23.4498 98.1712 23.7116C97.7834 23.9702 97.3094 24.0994 96.7493 24.0994C96.2621 24.0994 95.8295 23.9934 95.4517 23.7812C95.0739 23.5658 94.7772 23.2509 94.5618 22.8366C94.3464 22.4223 94.2386 21.9136 94.2386 21.3104V16.3636H95.1236V21.2557C95.1236 21.8523 95.2992 22.3329 95.6506 22.6974C96.0019 23.0587 96.4527 23.2393 97.0028 23.2393C97.3475 23.2393 97.679 23.1565 97.9972 22.9908C98.3153 22.825 98.5772 22.5831 98.7827 22.2649C98.9882 21.9434 99.0909 21.549 99.0909 21.0817ZM102.319 26.8636V16.3636H103.179V17.8203H103.283C103.389 17.5916 103.535 17.358 103.721 17.1193C103.906 16.8774 104.152 16.6735 104.456 16.5078C104.765 16.3421 105.153 16.2592 105.62 16.2592C106.25 16.2592 106.8 16.425 107.27 16.7564C107.744 17.0845 108.112 17.5452 108.374 18.1385C108.639 18.7285 108.772 19.4162 108.772 20.2017C108.772 20.9905 108.639 21.6816 108.374 22.2749C108.112 22.8681 107.744 23.3305 107.27 23.6619C106.8 23.9934 106.253 24.1591 105.63 24.1591C105.169 24.1591 104.783 24.0762 104.471 23.9105C104.163 23.7448 103.913 23.541 103.721 23.299C103.532 23.0537 103.386 22.8151 103.283 22.5831H103.204V26.8636H102.319ZM103.194 20.1868C103.194 20.8033 103.285 21.3501 103.467 21.8274C103.653 22.3014 103.918 22.6742 104.263 22.946C104.611 23.2145 105.032 23.3487 105.525 23.3487C106.032 23.3487 106.46 23.2095 106.808 22.9311C107.159 22.6494 107.426 22.2699 107.608 21.7926C107.794 21.3153 107.887 20.7801 107.887 20.1868C107.887 19.6001 107.796 19.0715 107.613 18.6009C107.434 18.1302 107.169 17.7573 106.818 17.4822C106.467 17.2038 106.036 17.0646 105.525 17.0646C105.028 17.0646 104.606 17.1989 104.258 17.4673C103.91 17.7325 103.644 18.1004 103.462 18.571C103.283 19.0384 103.194 19.5769 103.194 20.1868ZM114.651 24V16.3636H115.511V17.5369H115.59C115.743 17.1425 115.996 16.8326 116.351 16.6072C116.709 16.3786 117.138 16.2642 117.639 16.2642C118.166 16.2642 118.598 16.3885 118.936 16.6371C119.278 16.8823 119.533 17.2204 119.702 17.6513H119.767C119.939 17.227 120.219 16.8906 120.607 16.642C120.998 16.3902 121.472 16.2642 122.029 16.2642C122.738 16.2642 123.298 16.4879 123.709 16.9354C124.12 17.3795 124.325 18.0291 124.325 18.8842V24H123.441V18.8842C123.441 18.281 123.286 17.8286 122.978 17.527C122.67 17.2254 122.264 17.0746 121.76 17.0746C121.177 17.0746 120.728 17.2536 120.413 17.6115C120.098 17.9695 119.941 18.4235 119.941 18.9737V24H119.036V18.8047C119.036 18.2876 118.892 17.87 118.603 17.5518C118.315 17.2337 117.909 17.0746 117.385 17.0746C117.034 17.0746 116.717 17.1607 116.436 17.3331C116.157 17.5054 115.937 17.7457 115.774 18.054C115.615 18.3589 115.536 18.7102 115.536 19.108V24H114.651ZM128.801 24.174C128.34 24.174 127.92 24.0845 127.538 23.9055C127.157 23.7232 126.854 23.4614 126.629 23.12C126.403 22.7753 126.29 22.3577 126.29 21.8672C126.29 21.4893 126.362 21.1712 126.504 20.9126C126.647 20.6541 126.849 20.442 127.111 20.2763C127.373 20.1106 127.683 19.9796 128.04 19.8835C128.398 19.7874 128.793 19.7128 129.224 19.6598C129.651 19.6068 130.013 19.5604 130.308 19.5206C130.606 19.4808 130.833 19.4179 130.989 19.3317C131.144 19.2455 131.222 19.1063 131.222 18.9141V18.7351C131.222 18.2147 131.067 17.8054 130.755 17.5071C130.447 17.2055 130.003 17.0547 129.423 17.0547C128.872 17.0547 128.423 17.1757 128.075 17.4176C127.731 17.6596 127.489 17.9446 127.349 18.2727L126.509 17.9695C126.682 17.5518 126.92 17.2187 127.225 16.9702C127.53 16.7183 127.871 16.5376 128.249 16.4283C128.627 16.3156 129.01 16.2592 129.398 16.2592C129.689 16.2592 129.993 16.2973 130.308 16.3736C130.626 16.4498 130.921 16.5824 131.192 16.7713C131.464 16.9569 131.685 17.2171 131.854 17.5518C132.023 17.8833 132.107 18.3042 132.107 18.8146V24H131.222V22.7919H131.168C131.062 23.0173 130.904 23.236 130.695 23.4482C130.487 23.6603 130.225 23.8343 129.91 23.9702C129.595 24.1061 129.225 24.174 128.801 24.174ZM128.92 23.3636C129.391 23.3636 129.799 23.2592 130.143 23.0504C130.488 22.8416 130.753 22.5649 130.939 22.2202C131.128 21.8722 131.222 21.4893 131.222 21.0717V19.968C131.156 20.031 131.045 20.0874 130.889 20.1371C130.737 20.1868 130.559 20.2315 130.357 20.2713C130.158 20.3078 129.96 20.3393 129.761 20.3658C129.562 20.3923 129.383 20.4155 129.224 20.4354C128.793 20.4884 128.425 20.5713 128.12 20.6839C127.815 20.7966 127.581 20.9524 127.419 21.1513C127.257 21.3468 127.175 21.5987 127.175 21.907C127.175 22.371 127.341 22.7306 127.673 22.9858C128.004 23.2377 128.42 23.3636 128.92 23.3636ZM135.346 19.2273V24H134.461V16.3636H135.321V17.5618H135.401C135.58 17.1707 135.858 16.8575 136.236 16.6222C136.617 16.3835 137.088 16.2642 137.648 16.2642C138.162 16.2642 138.613 16.3719 139 16.5874C139.391 16.7995 139.695 17.1127 139.91 17.527C140.129 17.9413 140.238 18.45 140.238 19.0533V24H139.353V19.108C139.353 18.4815 139.178 17.986 138.826 17.6214C138.478 17.2569 138.011 17.0746 137.424 17.0746C137.023 17.0746 136.667 17.1607 136.355 17.3331C136.044 17.5054 135.797 17.754 135.615 18.0788C135.436 18.4003 135.346 18.7831 135.346 19.2273ZM147.421 21.0817V16.3636H148.306V24H147.421V22.7322H147.351C147.172 23.1233 146.889 23.4498 146.501 23.7116C146.113 23.9702 145.64 24.0994 145.079 24.0994C144.592 24.0994 144.16 23.9934 143.782 23.7812C143.404 23.5658 143.107 23.2509 142.892 22.8366C142.676 22.4223 142.569 21.9136 142.569 21.3104V16.3636H143.454V21.2557C143.454 21.8523 143.629 22.3329 143.981 22.6974C144.332 23.0587 144.783 23.2393 145.333 23.2393C145.678 23.2393 146.009 23.1565 146.327 22.9908C146.645 22.825 146.907 22.5831 147.113 22.2649C147.318 21.9434 147.421 21.549 147.421 21.0817ZM152.782 24.174C152.321 24.174 151.9 24.0845 151.519 23.9055C151.138 23.7232 150.834 23.4614 150.609 23.12C150.384 22.7753 150.271 22.3577 150.271 21.8672C150.271 21.4893 150.342 21.1712 150.485 20.9126C150.627 20.6541 150.829 20.442 151.091 20.2763C151.353 20.1106 151.663 19.9796 152.021 19.8835C152.379 19.7874 152.773 19.7128 153.204 19.6598C153.632 19.6068 153.993 19.5604 154.288 19.5206C154.586 19.4808 154.813 19.4179 154.969 19.3317C155.125 19.2455 155.203 19.1063 155.203 18.9141V18.7351C155.203 18.2147 155.047 17.8054 154.735 17.5071C154.427 17.2055 153.983 17.0547 153.403 17.0547C152.853 17.0547 152.404 17.1757 152.056 17.4176C151.711 17.6596 151.469 17.9446 151.33 18.2727L150.49 17.9695C150.662 17.5518 150.901 17.2187 151.206 16.9702C151.511 16.7183 151.852 16.5376 152.23 16.4283C152.608 16.3156 152.99 16.2592 153.378 16.2592C153.67 16.2592 153.973 16.2973 154.288 16.3736C154.606 16.4498 154.901 16.5824 155.173 16.7713C155.445 16.9569 155.665 17.2171 155.834 17.5518C156.003 17.8833 156.088 18.3042 156.088 18.8146V24H155.203V22.7919H155.148C155.042 23.0173 154.885 23.236 154.676 23.4482C154.467 23.6603 154.205 23.8343 153.89 23.9702C153.575 24.1061 153.206 24.174 152.782 24.174ZM152.901 23.3636C153.372 23.3636 153.779 23.2592 154.124 23.0504C154.469 22.8416 154.734 22.5649 154.919 22.2202C155.108 21.8722 155.203 21.4893 155.203 21.0717V19.968C155.136 20.031 155.025 20.0874 154.87 20.1371C154.717 20.1868 154.54 20.2315 154.338 20.2713C154.139 20.3078 153.94 20.3393 153.741 20.3658C153.542 20.3923 153.363 20.4155 153.204 20.4354C152.773 20.4884 152.405 20.5713 152.1 20.6839C151.796 20.7966 151.562 20.9524 151.4 21.1513C151.237 21.3468 151.156 21.5987 151.156 21.907C151.156 22.371 151.322 22.7306 151.653 22.9858C151.984 23.2377 152.4 23.3636 152.901 23.3636ZM159.327 13.8182V24H158.442V13.8182H159.327ZM162.553 13.8182V24H161.668V13.8182H162.553ZM165.511 26.8636C165.336 26.8636 165.172 26.8471 165.019 26.8139C164.867 26.7808 164.746 26.7443 164.656 26.7045L164.895 25.924C165.196 26.0168 165.465 26.05 165.7 26.0234C165.936 26.0002 166.144 25.8942 166.327 25.7053C166.509 25.5196 166.671 25.2346 166.814 24.8501L167.092 24.0746L164.283 16.3636H165.243L167.51 22.8317H167.58L169.847 16.3636H170.806L167.575 25.2081C167.439 25.576 167.271 25.8826 167.072 26.1278C166.874 26.3764 166.643 26.5604 166.381 26.6797C166.123 26.8023 165.833 26.8636 165.511 26.8636Z" fill="#A5A5A5"/>
<line x1="184.425" y1="20.2579" x2="401.654" y2="20.2579" stroke="#A5A5A5"/>
<line x1="0.112305" y1="20.2579" x2="26.4012" y2="20.2579" stroke="#A5A5A5"/>
</svg>
