<svg width="390" height="54" viewBox="0 0 390 54" fill="none" xmlns="http://www.w3.org/2000/svg">
<path d="M46.7662 24.1591C46.1067 24.1591 45.5233 23.9917 45.0162 23.657C44.5125 23.3222 44.118 22.8598 43.833 22.2699C43.548 21.6766 43.4055 20.9922 43.4055 20.2166C43.4055 19.4344 43.548 18.7467 43.833 18.1534C44.118 17.5568 44.5125 17.0928 45.0162 16.7614C45.5233 16.4266 46.1067 16.2592 46.7662 16.2592C47.4258 16.2592 48.0075 16.4266 48.5113 16.7614C49.0151 17.0961 49.4095 17.5601 49.6945 18.1534C49.9829 18.7467 50.127 19.4344 50.127 20.2166C50.127 20.9922 49.9845 21.6766 49.6995 22.2699C49.4144 22.8598 49.0184 23.3222 48.5113 23.657C48.0075 23.9917 47.4258 24.1591 46.7662 24.1591ZM46.7662 23.3487C47.2965 23.3487 47.7457 23.2062 48.1135 22.9212C48.4814 22.6361 48.7599 22.2566 48.9488 21.7827C49.141 21.3087 49.2371 20.7867 49.2371 20.2166C49.2371 19.6465 49.141 19.1229 48.9488 18.6456C48.7599 18.1683 48.4814 17.7855 48.1135 17.4972C47.7457 17.2088 47.2965 17.0646 46.7662 17.0646C46.2393 17.0646 45.7902 17.2088 45.4189 17.4972C45.051 17.7855 44.771 18.1683 44.5787 18.6456C44.3898 19.1229 44.2954 19.6465 44.2954 20.2166C44.2954 20.7867 44.3898 21.3087 44.5787 21.7827C44.771 22.2566 45.051 22.6361 45.4189 22.9212C45.7868 23.2062 46.2359 23.3487 46.7662 23.3487ZM52.0697 24V16.3636H52.9298V17.5369H52.9944C53.1469 17.1525 53.412 16.8426 53.7899 16.6072C54.171 16.3686 54.6019 16.2493 55.0825 16.2493C55.1554 16.2493 55.2366 16.2509 55.3261 16.2543C55.4156 16.2576 55.4901 16.2609 55.5498 16.2642V17.1641C55.51 17.1574 55.4404 17.1475 55.341 17.1342C55.2416 17.121 55.1338 17.1143 55.0178 17.1143C54.6201 17.1143 54.2655 17.1989 53.9539 17.3679C53.6457 17.5336 53.4021 17.764 53.2231 18.0589C53.0441 18.3539 52.9546 18.6903 52.9546 19.0682V24H52.0697ZM66.1281 18.0391L65.3177 18.2678C65.2382 18.0391 65.1255 17.8319 64.9797 17.6463C64.8338 17.4607 64.6433 17.3132 64.4079 17.2038C64.1759 17.0945 63.8876 17.0398 63.5429 17.0398C63.0258 17.0398 62.6016 17.1624 62.2702 17.4077C61.9387 17.6529 61.773 17.9695 61.773 18.3572C61.773 18.6854 61.8857 18.9522 62.1111 19.1577C62.3398 19.3598 62.6911 19.5206 63.165 19.6399L64.3184 19.9233C64.9581 20.0791 65.4371 20.326 65.7552 20.6641C66.0767 21.0021 66.2375 21.4264 66.2375 21.9368C66.2375 22.3677 66.1182 22.7505 65.8795 23.0852C65.6409 23.42 65.3078 23.6835 64.8802 23.8757C64.456 24.0646 63.9638 24.1591 63.4037 24.1591C62.6579 24.1591 62.0431 23.9917 61.5592 23.657C61.0753 23.3189 60.7654 22.8317 60.6295 22.1953L61.4797 21.9865C61.589 22.4406 61.8028 22.7836 62.121 23.0156C62.4425 23.2476 62.8651 23.3636 63.3888 23.3636C63.9754 23.3636 64.4444 23.2327 64.7957 22.9709C65.147 22.7057 65.3227 22.3743 65.3227 21.9766C65.3227 21.6683 65.22 21.4098 65.0145 21.201C64.809 20.9889 64.4974 20.8331 64.0798 20.7337L62.8319 20.4354C62.1691 20.2763 61.6785 20.0244 61.3604 19.6797C61.0422 19.335 60.8831 18.9074 60.8831 18.397C60.8831 17.9761 60.9974 17.6065 61.2261 17.2884C61.4548 16.9669 61.7697 16.715 62.1707 16.5327C62.5718 16.3504 63.0291 16.2592 63.5429 16.2592C64.2422 16.2592 64.8007 16.4183 65.2183 16.7365C65.6392 17.0514 65.9425 17.4856 66.1281 18.0391ZM68.1851 24V16.3636H69.075V24H68.1851ZM68.6375 15.0511C68.4552 15.0511 68.2994 14.9898 68.1702 14.8672C68.0409 14.7412 67.9763 14.5904 67.9763 14.4148C67.9763 14.2391 68.0409 14.09 68.1702 13.9673C68.2994 13.8414 68.4552 13.7784 68.6375 13.7784C68.8198 13.7784 68.9756 13.8414 69.1048 13.9673C69.2341 14.09 69.2987 14.2391 69.2987 14.4148C69.2987 14.5904 69.2341 14.7412 69.1048 14.8672C68.9756 14.9898 68.8198 15.0511 68.6375 15.0511ZM74.3287 27.0227C73.8084 27.0227 73.3527 26.9548 72.9616 26.8189C72.5705 26.6863 72.2407 26.504 71.9722 26.272C71.7037 26.04 71.4949 25.7798 71.3458 25.4915L72.0716 25.0142C72.181 25.2064 72.3269 25.3954 72.5091 25.581C72.6948 25.7666 72.935 25.9207 73.23 26.0433C73.5283 26.166 73.8946 26.2273 74.3287 26.2273C75.0049 26.2273 75.5501 26.0582 75.9644 25.7202C76.382 25.3821 76.5908 24.8568 76.5908 24.1442V22.424H76.5113C76.4085 22.656 76.261 22.888 76.0688 23.12C75.8766 23.3487 75.6247 23.5393 75.3131 23.6918C75.0049 23.8442 74.6221 23.9205 74.1647 23.9205C73.5548 23.9205 73.0129 23.7696 72.539 23.468C72.0683 23.1664 71.6971 22.7356 71.4253 22.1754C71.1569 21.612 71.0226 20.9408 71.0226 20.1619C71.0226 19.3897 71.1536 18.7102 71.4154 18.1236C71.6805 17.5369 72.0501 17.0795 72.5241 16.7514C72.998 16.4233 73.5499 16.2592 74.1796 16.2592C74.6469 16.2592 75.0347 16.3421 75.343 16.5078C75.6512 16.6702 75.8981 16.8724 76.0837 17.1143C76.2726 17.3563 76.4201 17.5916 76.5262 17.8203H76.6157V16.3636H77.4807V24.1989C77.4807 24.8452 77.3432 25.3771 77.0681 25.7947C76.793 26.2124 76.4185 26.5206 75.9445 26.7195C75.4706 26.9216 74.932 27.0227 74.3287 27.0227ZM74.2691 23.1101C74.7596 23.1101 75.1789 22.9924 75.5269 22.7571C75.8749 22.5185 76.1417 22.1771 76.3273 21.733C76.5129 21.2888 76.6057 20.7602 76.6057 20.147C76.6057 19.5504 76.5146 19.0218 76.3323 18.5611C76.15 18.0971 75.8849 17.7325 75.5368 17.4673C75.1921 17.1989 74.7696 17.0646 74.2691 17.0646C73.7587 17.0646 73.3278 17.2022 72.9765 17.4773C72.6251 17.7524 72.36 18.1236 72.181 18.5909C72.002 19.0549 71.9126 19.5736 71.9126 20.147C71.9126 20.7304 72.0037 21.2457 72.186 21.6932C72.3683 22.1373 72.6351 22.4853 72.9864 22.7372C73.3377 22.9858 73.7653 23.1101 74.2691 23.1101ZM80.7085 19.2273V24H79.8236V16.3636H80.6837V17.5618H80.7632C80.9422 17.1707 81.2206 16.8575 81.5985 16.6222C81.9796 16.3835 82.4503 16.2642 83.0104 16.2642C83.5241 16.2642 83.9749 16.3719 84.3627 16.5874C84.7538 16.7995 85.057 17.1127 85.2725 17.527C85.4912 17.9413 85.6006 18.45 85.6006 19.0533V24H84.7156V19.108C84.7156 18.4815 84.54 17.986 84.1887 17.6214C83.8406 17.2569 83.3733 17.0746 82.7867 17.0746C82.3856 17.0746 82.0293 17.1607 81.7178 17.3331C81.4062 17.5054 81.1593 17.754 80.977 18.0788C80.798 18.4003 80.7085 18.7831 80.7085 19.2273ZM91.8785 24V16.3636H92.7684V24H91.8785ZM92.3309 15.0511C92.1486 15.0511 91.9928 14.9898 91.8635 14.8672C91.7343 14.7412 91.6697 14.5904 91.6697 14.4148C91.6697 14.2391 91.7343 14.09 91.8635 13.9673C91.9928 13.8414 92.1486 13.7784 92.3309 13.7784C92.5132 13.7784 92.6689 13.8414 92.7982 13.9673C92.9275 14.09 92.9921 14.2391 92.9921 14.4148C92.9921 14.5904 92.9275 14.7412 92.7982 14.8672C92.6689 14.9898 92.5132 15.0511 92.3309 15.0511ZM95.9937 19.2273V24H95.1088V16.3636H95.9688V17.5618H96.0484C96.2274 17.1707 96.5058 16.8575 96.8836 16.6222C97.2648 16.3835 97.7354 16.2642 98.2955 16.2642C98.8093 16.2642 99.26 16.3719 99.6478 16.5874C100.039 16.7995 100.342 17.1127 100.558 17.527C100.776 17.9413 100.886 18.45 100.886 19.0533V24H100.001V19.108C100.001 18.4815 99.8251 17.986 99.4738 17.6214C99.1258 17.2569 98.6585 17.0746 98.0718 17.0746C97.6708 17.0746 97.3145 17.1607 97.0029 17.3331C96.6914 17.5054 96.4445 17.754 96.2622 18.0788C96.0832 18.4003 95.9937 18.7831 95.9937 19.2273ZM107.154 24V16.3636H108.014V17.5369H108.093C108.246 17.1425 108.499 16.8326 108.854 16.6072C109.212 16.3786 109.641 16.2642 110.142 16.2642C110.669 16.2642 111.101 16.3885 111.439 16.6371C111.781 16.8823 112.036 17.2204 112.205 17.6513H112.269C112.442 17.227 112.722 16.8906 113.11 16.642C113.501 16.3902 113.975 16.2642 114.532 16.2642C115.241 16.2642 115.801 16.4879 116.212 16.9354C116.623 17.3795 116.828 18.0291 116.828 18.8842V24H115.943V18.8842C115.943 18.281 115.789 17.8286 115.481 17.527C115.173 17.2254 114.767 17.0746 114.263 17.0746C113.68 17.0746 113.231 17.2536 112.916 17.6115C112.601 17.9695 112.443 18.4235 112.443 18.9737V24H111.539V18.8047C111.539 18.2876 111.394 17.87 111.106 17.5518C110.818 17.2337 110.412 17.0746 109.888 17.0746C109.537 17.0746 109.22 17.1607 108.938 17.3331C108.66 17.5054 108.44 17.7457 108.277 18.054C108.118 18.3589 108.039 18.7102 108.039 19.108V24H107.154ZM121.304 24.174C120.843 24.174 120.422 24.0845 120.041 23.9055C119.66 23.7232 119.357 23.4614 119.131 23.12C118.906 22.7753 118.793 22.3577 118.793 21.8672C118.793 21.4893 118.865 21.1712 119.007 20.9126C119.15 20.6541 119.352 20.442 119.614 20.2763C119.876 20.1106 120.185 19.9796 120.543 19.8835C120.901 19.7874 121.296 19.7128 121.727 19.6598C122.154 19.6068 122.515 19.5604 122.81 19.5206C123.109 19.4808 123.336 19.4179 123.492 19.3317C123.647 19.2455 123.725 19.1063 123.725 18.9141V18.7351C123.725 18.2147 123.569 17.8054 123.258 17.5071C122.95 17.2055 122.506 17.0547 121.926 17.0547C121.375 17.0547 120.926 17.1757 120.578 17.4176C120.234 17.6596 119.992 17.9446 119.852 18.2727L119.012 17.9695C119.185 17.5518 119.423 17.2187 119.728 16.9702C120.033 16.7183 120.374 16.5376 120.752 16.4283C121.13 16.3156 121.513 16.2592 121.901 16.2592C122.192 16.2592 122.496 16.2973 122.81 16.3736C123.129 16.4498 123.424 16.5824 123.695 16.7713C123.967 16.9569 124.188 17.2171 124.357 17.5518C124.526 17.8833 124.61 18.3042 124.61 18.8146V24H123.725V22.7919H123.671C123.564 23.0173 123.407 23.236 123.198 23.4482C122.989 23.6603 122.728 23.8343 122.413 23.9702C122.098 24.1061 121.728 24.174 121.304 24.174ZM121.423 23.3636C121.894 23.3636 122.302 23.2592 122.646 23.0504C122.991 22.8416 123.256 22.5649 123.442 22.2202C123.631 21.8722 123.725 21.4893 123.725 21.0717V19.968C123.659 20.031 123.548 20.0874 123.392 20.1371C123.24 20.1868 123.062 20.2315 122.86 20.2713C122.661 20.3078 122.462 20.3393 122.264 20.3658C122.065 20.3923 121.886 20.4155 121.727 20.4354C121.296 20.4884 120.928 20.5713 120.623 20.6839C120.318 20.7966 120.084 20.9524 119.922 21.1513C119.76 21.3468 119.678 21.5987 119.678 21.907C119.678 22.371 119.844 22.7306 120.176 22.9858C120.507 23.2377 120.923 23.3636 121.423 23.3636ZM127.849 19.2273V24H126.964V16.3636H127.824V17.5618H127.904C128.083 17.1707 128.361 16.8575 128.739 16.6222C129.12 16.3835 129.591 16.2642 130.151 16.2642C130.665 16.2642 131.116 16.3719 131.503 16.5874C131.894 16.7995 132.198 17.1127 132.413 17.527C132.632 17.9413 132.741 18.45 132.741 19.0533V24H131.856V19.108C131.856 18.4815 131.681 17.986 131.329 17.6214C130.981 17.2569 130.514 17.0746 129.927 17.0746C129.526 17.0746 129.17 17.1607 128.858 17.3331C128.547 17.5054 128.3 17.754 128.118 18.0788C127.939 18.4003 127.849 18.7831 127.849 19.2273ZM139.924 21.0817V16.3636H140.809V24H139.924V22.7322H139.854C139.675 23.1233 139.392 23.4498 139.004 23.7116C138.616 23.9702 138.142 24.0994 137.582 24.0994C137.095 24.0994 136.663 23.9934 136.285 23.7812C135.907 23.5658 135.61 23.2509 135.395 22.8366C135.179 22.4223 135.072 21.9136 135.072 21.3104V16.3636H135.957V21.2557C135.957 21.8523 136.132 22.3329 136.484 22.6974C136.835 23.0587 137.286 23.2393 137.836 23.2393C138.181 23.2393 138.512 23.1565 138.83 22.9908C139.148 22.825 139.41 22.5831 139.616 22.2649C139.821 21.9434 139.924 21.549 139.924 21.0817ZM145.285 24.174C144.824 24.174 144.403 24.0845 144.022 23.9055C143.641 23.7232 143.337 23.4614 143.112 23.12C142.887 22.7753 142.774 22.3577 142.774 21.8672C142.774 21.4893 142.845 21.1712 142.988 20.9126C143.13 20.6541 143.332 20.442 143.594 20.2763C143.856 20.1106 144.166 19.9796 144.524 19.8835C144.882 19.7874 145.276 19.7128 145.707 19.6598C146.135 19.6068 146.496 19.5604 146.791 19.5206C147.089 19.4808 147.316 19.4179 147.472 19.3317C147.628 19.2455 147.706 19.1063 147.706 18.9141V18.7351C147.706 18.2147 147.55 17.8054 147.238 17.5071C146.93 17.2055 146.486 17.0547 145.906 17.0547C145.356 17.0547 144.907 17.1757 144.559 17.4176C144.214 17.6596 143.972 17.9446 143.833 18.2727L142.993 17.9695C143.165 17.5518 143.404 17.2187 143.709 16.9702C144.013 16.7183 144.355 16.5376 144.733 16.4283C145.111 16.3156 145.493 16.2592 145.881 16.2592C146.173 16.2592 146.476 16.2973 146.791 16.3736C147.109 16.4498 147.404 16.5824 147.676 16.7713C147.948 16.9569 148.168 17.2171 148.337 17.5518C148.506 17.8833 148.591 18.3042 148.591 18.8146V24H147.706V22.7919H147.651C147.545 23.0173 147.388 23.236 147.179 23.4482C146.97 23.6603 146.708 23.8343 146.393 23.9702C146.078 24.1061 145.709 24.174 145.285 24.174ZM145.404 23.3636C145.874 23.3636 146.282 23.2592 146.627 23.0504C146.972 22.8416 147.237 22.5649 147.422 22.2202C147.611 21.8722 147.706 21.4893 147.706 21.0717V19.968C147.639 20.031 147.528 20.0874 147.373 20.1371C147.22 20.1868 147.043 20.2315 146.841 20.2713C146.642 20.3078 146.443 20.3393 146.244 20.3658C146.045 20.3923 145.866 20.4155 145.707 20.4354C145.276 20.4884 144.908 20.5713 144.603 20.6839C144.299 20.7966 144.065 20.9524 143.902 21.1513C143.74 21.3468 143.659 21.5987 143.659 21.907C143.659 22.371 143.825 22.7306 144.156 22.9858C144.487 23.2377 144.903 23.3636 145.404 23.3636ZM151.83 13.8182V24H150.945V13.8182H151.83ZM155.056 13.8182V24H154.171V13.8182H155.056ZM158.014 26.8636C157.839 26.8636 157.675 26.8471 157.522 26.8139C157.37 26.7808 157.249 26.7443 157.159 26.7045L157.398 25.924C157.699 26.0168 157.968 26.05 158.203 26.0234C158.439 26.0002 158.647 25.8942 158.83 25.7053C159.012 25.5196 159.174 25.2346 159.317 24.8501L159.595 24.0746L156.786 16.3636H157.746L160.013 22.8317H160.082L162.35 16.3636H163.309L160.078 25.2081C159.942 25.576 159.774 25.8826 159.575 26.1278C159.377 26.3764 159.146 26.5604 158.884 26.6797C158.626 26.8023 158.336 26.8636 158.014 26.8636Z" fill="#A5A5A5"/>
<line x1="173.882" y1="20.8317" x2="389.016" y2="20.8317" stroke="#A5A5A5"/>
<line x1="5.9897e-08" y1="20.8317" x2="26.0354" y2="20.8317" stroke="#A5A5A5"/>
</svg>
