<svg width="40" height="43" viewBox="0 0 40 43" fill="none" xmlns="http://www.w3.org/2000/svg">
<path d="M38.3331 37.617H1.66666C1.22464 37.617 0.800716 37.4493 0.488157 37.1507C0.175598 36.8521 3.51843e-06 36.4472 3.51843e-06 36.025C-0.00145814 34.227 0.452512 32.4554 1.32317 30.8614C2.19383 29.2673 3.45532 27.8982 4.99998 26.8708V18.5126C4.99989 14.729 6.5665 11.099 9.35794 8.41461C12.1494 5.73026 15.939 4.20955 19.8999 4.18433H20.0832C24.0615 4.18433 27.8768 5.69391 30.6898 8.38098C33.5028 11.0681 35.0832 14.7125 35.0832 18.5126V26.8708C36.6124 27.907 37.8577 29.2799 38.7136 30.8734C39.5695 32.4669 40.0107 34.234 39.9998 36.025C39.9998 36.4472 39.8242 36.8521 39.5117 37.1507C39.1991 37.4493 38.7752 37.617 38.3331 37.617ZM3.49999 34.4329H36.4998C36.2638 33.3292 35.7852 32.2859 35.0956 31.372C34.4061 30.4581 33.5213 29.6945 32.4998 29.1315C32.2455 28.9912 32.0345 28.7892 31.8881 28.546C31.7418 28.3028 31.6653 28.0269 31.6665 27.7464V18.5126C31.6665 15.557 30.4374 12.7224 28.2494 10.6325C26.0615 8.54251 23.0941 7.36839 19.9999 7.36839C16.9057 7.36839 13.9383 8.54251 11.7504 10.6325C9.56245 12.7224 8.3333 15.557 8.3333 18.5126V27.7464C8.33446 28.0269 8.258 28.3028 8.11167 28.546C7.96533 28.7892 7.75431 28.9912 7.49997 29.1315C6.47848 29.6945 5.59373 30.4581 4.90419 31.372C4.21466 32.2859 3.73604 33.3292 3.49999 34.4329Z" fill="#F1F1F1"/>
<path d="M19.9996 42.3925C18.2315 42.3925 16.5359 41.7216 15.2856 40.5273C14.0354 39.3331 13.333 37.7133 13.333 36.0244C13.333 35.6022 13.5086 35.1972 13.8212 34.8987C14.1337 34.6001 14.5576 34.4324 14.9997 34.4324H24.9996C25.4416 34.4324 25.8656 34.6001 26.1781 34.8987C26.4907 35.1972 26.6663 35.6022 26.6663 36.0244C26.6663 37.7133 25.9639 39.3331 24.7137 40.5273C23.4634 41.7216 21.7677 42.3925 19.9996 42.3925ZM17.1163 37.6164C17.4093 38.0989 17.8299 38.4995 18.3359 38.7779C18.842 39.0563 19.4157 39.2028 19.9996 39.2028C20.5836 39.2028 21.1573 39.0563 21.6633 38.7779C22.1694 38.4995 22.5899 38.0989 22.883 37.6164H17.1163Z" fill="#F1F1F1"/>
<path d="M23.3333 6.36813H16.6667C16.2246 6.36813 15.8007 6.2004 15.4882 5.90183C15.1756 5.60327 15 5.19833 15 4.7761C15 3.5094 15.5268 2.29458 16.4645 1.39889C17.4021 0.503194 18.6739 0 20 0C21.3261 0 22.5978 0.503194 23.5355 1.39889C24.4732 2.29458 24.9999 3.5094 24.9999 4.7761C24.9999 5.19833 24.8244 5.60327 24.5118 5.90183C24.1992 6.2004 23.7753 6.36813 23.3333 6.36813Z" fill="#F1F1F1"/>
</svg>
