<svg width="16" height="15" viewBox="0 0 16 15" fill="none" xmlns="http://www.w3.org/2000/svg">
<g clip-path="url(#clip0_7_400)">
<path d="M16 6.81818C16 6.14688 15.6403 5.56705 15.1111 5.25227V0.909375C15.1111 0.660795 14.9172 0 14.2222 0C14.0244 0 13.8281 0.0676136 13.6672 0.199432L11.3053 2.1321C10.1189 3.10199 8.62944 3.63636 7.11111 3.63636H1.77778C0.795833 3.63636 0 4.45028 0 5.45455V8.18182C0 9.18608 0.795833 10 1.77778 10H2.71389C2.67528 10.2977 2.65333 10.6006 2.65333 10.9091C2.65333 12.0389 2.91056 13.1065 3.36333 14.0608C3.5075 14.3645 3.82222 14.5455 4.15222 14.5455H6.21556C6.93917 14.5455 7.37361 13.6977 6.935 13.1091C6.47944 12.4977 6.20861 11.7352 6.20861 10.9091C6.20861 10.5935 6.25361 10.2901 6.33111 10H7.11111C8.62944 10 10.1189 10.5344 11.305 11.5043L13.6669 13.4369C13.8245 13.5659 14.0202 13.6362 14.2219 13.6364C14.9142 13.6364 15.1108 12.9892 15.1108 12.7273V8.38438C15.6403 8.06932 16 7.48949 16 6.81818ZM13.3333 10.8358L12.4153 10.0847C10.9153 8.85739 9.03111 8.18182 7.11111 8.18182V5.45455C9.03111 5.45455 10.9153 4.77898 12.4153 3.5517L13.3333 2.80057V10.8358Z" fill="#FFB800"/>
</g>
<defs>
<clipPath id="clip0_7_400">
<rect width="16" height="14.5455" fill="white"/>
</clipPath>
</defs>
</svg>
