<svg width="16" height="16" viewBox="0 0 16 16" fill="none" xmlns="http://www.w3.org/2000/svg">
<path d="M7.432 10.632C7.3976 10.67 7.36554 10.7101 7.336 10.752C7.30573 10.7966 7.28151 10.845 7.264 10.896C7.24094 10.9413 7.22476 10.9899 7.216 11.04C7.21208 11.0933 7.21208 11.1467 7.216 11.2C7.2133 11.3049 7.23522 11.4091 7.28 11.504C7.31593 11.6033 7.37326 11.6934 7.44791 11.7681C7.52257 11.8427 7.61273 11.9001 7.712 11.936C7.80776 11.9783 7.91131 12.0002 8.016 12.0002C8.1207 12.0002 8.22424 11.9783 8.32 11.936C8.41928 11.9001 8.50944 11.8427 8.58409 11.7681C8.65875 11.6934 8.71607 11.6033 8.752 11.504C8.78753 11.4067 8.80383 11.3035 8.8 11.2C8.80061 11.0947 8.78043 10.9903 8.74062 10.8929C8.70081 10.7954 8.64215 10.7067 8.568 10.632C8.49363 10.557 8.40515 10.4975 8.30766 10.4569C8.21018 10.4163 8.10561 10.3954 8 10.3954C7.89439 10.3954 7.78983 10.4163 7.69234 10.4569C7.59485 10.4975 7.50637 10.557 7.432 10.632ZM8 0C6.41775 0 4.87103 0.469192 3.55544 1.34824C2.23985 2.22729 1.21447 3.47672 0.608967 4.93853C0.00346627 6.40034 -0.15496 8.00887 0.153721 9.56072C0.462403 11.1126 1.22433 12.538 2.34315 13.6569C3.46197 14.7757 4.88743 15.5376 6.43928 15.8463C7.99113 16.155 9.59966 15.9965 11.0615 15.391C12.5233 14.7855 13.7727 13.7602 14.6518 12.4446C15.5308 11.129 16 9.58225 16 8C16 6.94942 15.7931 5.90914 15.391 4.93853C14.989 3.96793 14.3997 3.08601 13.6569 2.34315C12.914 1.60028 12.0321 1.011 11.0615 0.608964C10.0909 0.206926 9.05058 0 8 0ZM8 14.4C6.7342 14.4 5.49683 14.0246 4.44435 13.3214C3.39188 12.6182 2.57158 11.6186 2.08717 10.4492C1.60277 9.27972 1.47603 7.9929 1.72298 6.75142C1.96992 5.50994 2.57946 4.36957 3.47452 3.47452C4.36958 2.57946 5.50995 1.96992 6.75142 1.72297C7.9929 1.47603 9.27973 1.60277 10.4492 2.08717C11.6186 2.57157 12.6182 3.39187 13.3214 4.44435C14.0246 5.49682 14.4 6.7342 14.4 8C14.4 9.69738 13.7257 11.3252 12.5255 12.5255C11.3253 13.7257 9.69739 14.4 8 14.4ZM8 4C7.57845 3.99973 7.16427 4.1105 6.79913 4.32115C6.43399 4.53181 6.13078 4.83493 5.92 5.2C5.86212 5.29105 5.82325 5.39287 5.80574 5.49934C5.78823 5.6058 5.79244 5.71471 5.81811 5.81951C5.84377 5.9243 5.89038 6.02283 5.95511 6.10915C6.01984 6.19547 6.10137 6.2678 6.19478 6.32179C6.28819 6.37579 6.39156 6.41033 6.49867 6.42334C6.60578 6.43635 6.71441 6.42756 6.81803 6.3975C6.92165 6.36744 7.01813 6.31673 7.10164 6.24841C7.18516 6.1801 7.25399 6.0956 7.304 6C7.37449 5.87791 7.47598 5.77662 7.5982 5.70638C7.72042 5.63614 7.85903 5.59944 8 5.6C8.21218 5.6 8.41566 5.68428 8.56569 5.83431C8.71572 5.98434 8.8 6.18783 8.8 6.4C8.8 6.61217 8.71572 6.81565 8.56569 6.96568C8.41566 7.11571 8.21218 7.2 8 7.2C7.78783 7.2 7.58435 7.28428 7.43432 7.43431C7.28429 7.58434 7.2 7.78782 7.2 8V8.8C7.2 9.01217 7.28429 9.21565 7.43432 9.36568C7.58435 9.51571 7.78783 9.6 8 9.6C8.21218 9.6 8.41566 9.51571 8.56569 9.36568C8.71572 9.21565 8.8 9.01217 8.8 8.8V8.656C9.3291 8.46401 9.77389 8.09218 10.0566 7.60549C10.3393 7.11881 10.442 6.54823 10.3467 5.99351C10.2514 5.43879 9.96416 4.93521 9.5352 4.57081C9.10623 4.20641 8.56284 4.00437 8 4Z" fill="white"/>
</svg>
