<svg width="15" height="18" viewBox="0 0 15 18" fill="none" xmlns="http://www.w3.org/2000/svg">
<path d="M9.44687 12.5515C9.16078 12.2655 9.16078 11.7979 9.44687 11.5084L13.0055 7.94971L14.0487 8.99288L10.49 12.5515C10.2005 12.8376 9.73295 12.8376 9.44687 12.5515Z" fill="white"/>
<path d="M9.43295 5.42721C9.71904 5.14112 10.1865 5.14112 10.4761 5.42721L14.0348 8.98587L12.9916 10.029L9.43295 6.4669C9.14686 6.18081 9.14686 5.7133 9.43295 5.42721Z" fill="white"/>
<path d="M4.35645 8.98933C4.35645 8.58462 4.6844 8.25317 5.0926 8.25317H11.9482V9.72548H5.0926C4.68789 9.72548 4.35645 9.39753 4.35645 8.98933Z" fill="white"/>
<path d="M9.628 1H3.83297C2.26646 1 1 2.26995 1 3.83297V14.167C1 15.7335 2.26995 17 3.83297 17H9.628" stroke="#FF4564" stroke-width="1.5" stroke-miterlimit="10" stroke-linecap="round"/>
<path d="M9.44687 12.5515C9.16078 12.2655 9.16078 11.7979 9.44687 11.5084L13.0055 7.94971L14.0487 8.99288L10.49 12.5515C10.2005 12.8376 9.73295 12.8376 9.44687 12.5515Z" fill="#FF4564"/>
<path d="M9.43295 5.42721C9.71904 5.14112 10.1865 5.14112 10.4761 5.42721L14.0348 8.98587L12.9916 10.029L9.43295 6.4669C9.14686 6.18081 9.14686 5.7133 9.43295 5.42721Z" fill="#FF4564"/>
<path d="M4.35645 8.98933C4.35645 8.58462 4.6844 8.25317 5.0926 8.25317H11.9482V9.72548H5.0926C4.68789 9.72548 4.35645 9.39753 4.35645 8.98933Z" fill="#FF4564"/>
<path d="M9.628 1H3.83297C2.26646 1 1 2.26995 1 3.83297V14.167C1 15.7335 2.26995 17 3.83297 17H9.628" stroke="#FF4564" stroke-width="1.5" stroke-miterlimit="10" stroke-linecap="round"/>
</svg>
