<svg width="16" height="17" viewBox="0 0 16 17" fill="none" xmlns="http://www.w3.org/2000/svg">
<path fill-rule="evenodd" clip-rule="evenodd" d="M12 1.20843H8.57143V0.604216C8.57143 0.270689 8.31543 0 8 0C7.68457 0 7.42857 0.270689 7.42857 0.604216V1.20843H4V0.604216C4 0.270689 3.744 0 3.42857 0C3.11314 0 2.85714 0.270689 2.85714 0.604216V1.20843H1.71429C0.768 1.20843 0 2.0205 0 3.02108V15.1054C0 16.106 0.768 16.918 1.71429 16.918H14.2857C15.232 16.918 16 16.106 16 15.1054V3.02108C16 2.0205 15.232 1.20843 14.2857 1.20843H13.1429V0.604216C13.1429 0.270689 12.8869 0 12.5714 0C12.256 0 12 0.270689 12 0.604216V1.20843ZM14.8571 6.04216V15.1054C14.8571 15.4389 14.6011 15.7096 14.2857 15.7096H1.71429C1.39886 15.7096 1.14286 15.4389 1.14286 15.1054V6.04216H14.8571ZM4 11.4801C3.36914 11.4801 2.85714 12.0215 2.85714 12.6885C2.85714 13.3556 3.36914 13.897 4 13.897C4.63086 13.897 5.14286 13.3556 5.14286 12.6885C5.14286 12.0215 4.63086 11.4801 4 11.4801ZM8 11.4801C7.36914 11.4801 6.85714 12.0215 6.85714 12.6885C6.85714 13.3556 7.36914 13.897 8 13.897C8.63086 13.897 9.14286 13.3556 9.14286 12.6885C9.14286 12.0215 8.63086 11.4801 8 11.4801ZM4 7.8548C3.36914 7.8548 2.85714 8.39618 2.85714 9.06323C2.85714 9.73029 3.36914 10.2717 4 10.2717C4.63086 10.2717 5.14286 9.73029 5.14286 9.06323C5.14286 8.39618 4.63086 7.8548 4 7.8548ZM8 7.8548C7.36914 7.8548 6.85714 8.39618 6.85714 9.06323C6.85714 9.73029 7.36914 10.2717 8 10.2717C8.63086 10.2717 9.14286 9.73029 9.14286 9.06323C9.14286 8.39618 8.63086 7.8548 8 7.8548ZM12 7.8548C11.3691 7.8548 10.8571 8.39618 10.8571 9.06323C10.8571 9.73029 11.3691 10.2717 12 10.2717C12.6309 10.2717 13.1429 9.73029 13.1429 9.06323C13.1429 8.39618 12.6309 7.8548 12 7.8548ZM13.1429 2.41686H12V3.02108C12 3.3546 12.256 3.62529 12.5714 3.62529C12.8869 3.62529 13.1429 3.3546 13.1429 3.02108V2.41686ZM8.57143 2.41686H7.42857V3.02108C7.42857 3.3546 7.68457 3.62529 8 3.62529C8.31543 3.62529 8.57143 3.3546 8.57143 3.02108V2.41686ZM4 2.41686H2.85714V3.02108C2.85714 3.3546 3.11314 3.62529 3.42857 3.62529C3.744 3.62529 4 3.3546 4 3.02108V2.41686Z" fill="#FFB800"/>
</svg>
