<svg width="16" height="16" viewBox="0 0 16 16" fill="none" xmlns="http://www.w3.org/2000/svg">
<path fill-rule="evenodd" clip-rule="evenodd" d="M12 1.14286H8.57143V0.571429C8.57143 0.256 8.31543 0 8 0C7.68457 0 7.42857 0.256 7.42857 0.571429V1.14286H4V0.571429C4 0.256 3.744 0 3.42857 0C3.11314 0 2.85714 0.256 2.85714 0.571429V1.14286H1.71429C0.768 1.14286 0 1.91086 0 2.85714V14.2857C0 15.232 0.768 16 1.71429 16H14.2857C15.232 16 16 15.232 16 14.2857V2.85714C16 1.91086 15.232 1.14286 14.2857 1.14286H13.1429V0.571429C13.1429 0.256 12.8869 0 12.5714 0C12.256 0 12 0.256 12 0.571429V1.14286ZM14.8571 5.71429V14.2857C14.8571 14.6011 14.6011 14.8571 14.2857 14.8571H1.71429C1.39886 14.8571 1.14286 14.6011 1.14286 14.2857V5.71429H14.8571ZM4 10.8571C3.36914 10.8571 2.85714 11.3691 2.85714 12C2.85714 12.6309 3.36914 13.1429 4 13.1429C4.63086 13.1429 5.14286 12.6309 5.14286 12C5.14286 11.3691 4.63086 10.8571 4 10.8571ZM8 10.8571C7.36914 10.8571 6.85714 11.3691 6.85714 12C6.85714 12.6309 7.36914 13.1429 8 13.1429C8.63086 13.1429 9.14286 12.6309 9.14286 12C9.14286 11.3691 8.63086 10.8571 8 10.8571ZM4 7.42857C3.36914 7.42857 2.85714 7.94057 2.85714 8.57143C2.85714 9.20229 3.36914 9.71429 4 9.71429C4.63086 9.71429 5.14286 9.20229 5.14286 8.57143C5.14286 7.94057 4.63086 7.42857 4 7.42857ZM8 7.42857C7.36914 7.42857 6.85714 7.94057 6.85714 8.57143C6.85714 9.20229 7.36914 9.71429 8 9.71429C8.63086 9.71429 9.14286 9.20229 9.14286 8.57143C9.14286 7.94057 8.63086 7.42857 8 7.42857ZM12 7.42857C11.3691 7.42857 10.8571 7.94057 10.8571 8.57143C10.8571 9.20229 11.3691 9.71429 12 9.71429C12.6309 9.71429 13.1429 9.20229 13.1429 8.57143C13.1429 7.94057 12.6309 7.42857 12 7.42857ZM13.1429 2.28571H12V2.85714C12 3.17257 12.256 3.42857 12.5714 3.42857C12.8869 3.42857 13.1429 3.17257 13.1429 2.85714V2.28571ZM8.57143 2.28571H7.42857V2.85714C7.42857 3.17257 7.68457 3.42857 8 3.42857C8.31543 3.42857 8.57143 3.17257 8.57143 2.85714V2.28571ZM4 2.28571H2.85714V2.85714C2.85714 3.17257 3.11314 3.42857 3.42857 3.42857C3.744 3.42857 4 3.17257 4 2.85714V2.28571Z" fill="white"/>
</svg>
