<svg width="16" height="16" viewBox="0 0 16 16" fill="none" xmlns="http://www.w3.org/2000/svg">
<path d="M14.3308 8.31333V11.9276C14.3308 13.6578 12.9279 15.0603 11.198 15.0603H9.59688V10.1063H6.20484V15.0607H4.60372C2.87348 15.0607 1.47095 13.6578 1.47095 11.9279V8.31367L7.72268 3.64282L14.3308 8.31333Z" fill="white"/>
<path d="M1.16206 6.83196L7.75398 1.90691L14.8024 6.88894C15.0893 7.0919 15.4807 7.06021 15.7316 6.81376L15.7825 6.76352C16.1055 6.44627 16.063 5.91391 15.6935 5.65195L7.72262 0L0.286152 5.6715C-0.0456011 5.9247 -0.0968476 6.40446 0.174219 6.72172C0.423034 7.01301 0.855258 7.06122 1.16206 6.83196Z" fill="white"/>
</svg>
