<svg width="8" height="7" viewBox="0 0 8 7" fill="none" xmlns="http://www.w3.org/2000/svg">
<path d="M3.0284 6.79944C2.76248 6.53353 2.76248 6.10179 3.0284 5.83438L6.32693 2.53585L7.29199 3.50091L3.99346 6.79944C3.72754 7.06685 3.29581 7.06685 3.0284 6.79944Z" fill="#404040"/>
<path d="M3.01814 0.199296C3.28406 -0.0666188 3.7158 -0.0666188 3.9832 0.199296L7.28174 3.49783L6.31668 4.46289L3.01814 1.16286C2.75223 0.896948 2.75223 0.46521 3.01814 0.199296Z" fill="#404040"/>
<path d="M0.000465453 3.49941C0.000465486 3.12295 0.305222 2.81819 0.683179 2.8167L5.34863 2.8167L5.34863 4.18212L0.683179 4.18212C0.306715 4.18362 0.00046542 3.87737 0.000465453 3.49941Z" fill="#404040"/>
</svg>
