<svg width="65" height="31" viewBox="0 0 65 31" fill="none" xmlns="http://www.w3.org/2000/svg">
<path d="M19.8776 13.5323C19.7883 13.2522 19.6683 13.0014 19.5175 12.7798C19.3698 12.5552 19.1928 12.3643 18.9866 12.2074C18.7804 12.0473 18.545 11.9258 18.2803 11.8427C18.0187 11.7596 17.7309 11.718 17.417 11.718C16.8846 11.718 16.4044 11.855 15.9767 12.1289C15.5489 12.4028 15.2103 12.8045 14.961 13.3338C14.7148 13.8601 14.5917 14.5049 14.5917 15.2681C14.5917 16.0344 14.7164 16.6823 14.9656 17.2116C15.2149 17.741 15.5566 18.1426 15.9905 18.4165C16.4244 18.6905 16.9184 18.8274 17.4724 18.8274C17.9864 18.8274 18.4342 18.7228 18.8158 18.5135C19.2005 18.3042 19.4975 18.0088 19.7068 17.6271C19.9191 17.2424 20.0253 16.79 20.0253 16.2699L20.3946 16.3391H17.6894V15.1619H21.4056V16.2376C21.4056 17.0316 21.2364 17.721 20.8978 18.3058C20.5624 18.8874 20.0976 19.3368 19.5036 19.6538C18.9127 19.9708 18.2356 20.1293 17.4724 20.1293C16.6168 20.1293 15.8659 19.9323 15.2195 19.5384C14.5763 19.1444 14.0747 18.5858 13.7146 17.8626C13.3545 17.1362 13.1744 16.2745 13.1744 15.2773C13.1744 14.5233 13.2791 13.8462 13.4884 13.2461C13.6977 12.646 13.9916 12.1366 14.3701 11.718C14.7517 11.2964 15.1995 10.9748 15.7135 10.7532C16.2306 10.5285 16.7953 10.4162 17.4078 10.4162C17.9186 10.4162 18.3941 10.4916 18.8343 10.6424C19.2774 10.7932 19.6714 11.0071 20.0161 11.2841C20.3638 11.5611 20.6516 11.8904 20.8794 12.272C21.1071 12.6506 21.261 13.0707 21.341 13.5323H19.8776ZM26.0925 20.1431C25.4277 20.1431 24.8476 19.9908 24.3521 19.6861C23.8566 19.3814 23.4719 18.9551 23.198 18.4073C22.9241 17.8595 22.7871 17.2193 22.7871 16.4869C22.7871 15.7513 22.9241 15.1081 23.198 14.5572C23.4719 14.0063 23.8566 13.5785 24.3521 13.2738C24.8476 12.9691 25.4277 12.8168 26.0925 12.8168C26.7573 12.8168 27.3374 12.9691 27.8329 13.2738C28.3284 13.5785 28.7131 14.0063 28.987 14.5572C29.2609 15.1081 29.3979 15.7513 29.3979 16.4869C29.3979 17.2193 29.2609 17.8595 28.987 18.4073C28.7131 18.9551 28.3284 19.3814 27.8329 19.6861C27.3374 19.9908 26.7573 20.1431 26.0925 20.1431ZM26.0971 18.9844C26.528 18.9844 26.885 18.8705 27.1681 18.6428C27.4513 18.415 27.6606 18.1119 27.796 17.7333C27.9345 17.3548 28.0037 16.9377 28.0037 16.4822C28.0037 16.0298 27.9345 15.6143 27.796 15.2358C27.6606 14.8542 27.4513 14.5479 27.1681 14.3171C26.885 14.0863 26.528 13.9709 26.0971 13.9709C25.6632 13.9709 25.3031 14.0863 25.0169 14.3171C24.7337 14.5479 24.5229 14.8542 24.3844 15.2358C24.249 15.6143 24.1813 16.0298 24.1813 16.4822C24.1813 16.9377 24.249 17.3548 24.3844 17.7333C24.5229 18.1119 24.7337 18.415 25.0169 18.6428C25.3031 18.8705 25.6632 18.9844 26.0971 18.9844ZM34.4899 20V10.5455H37.9522C38.6232 10.5455 39.1787 10.6562 39.6188 10.8778C40.0589 11.0964 40.3882 11.3933 40.6067 11.7688C40.8252 12.1412 40.9345 12.5613 40.9345 13.0291C40.9345 13.4231 40.8622 13.7554 40.7175 14.0263C40.5729 14.294 40.379 14.5095 40.1358 14.6726C39.8958 14.8326 39.6311 14.9496 39.3418 15.0234V15.1158C39.6557 15.1312 39.9619 15.2327 40.2605 15.4205C40.5621 15.6051 40.8114 15.8683 41.0083 16.2099C41.2053 16.5515 41.3038 16.967 41.3038 17.4563C41.3038 17.9395 41.1899 18.3735 40.9622 18.7582C40.7375 19.1398 40.3897 19.4429 39.9189 19.6676C39.448 19.8892 38.8463 20 38.1138 20H34.4899ZM35.9164 18.7766H37.9753C38.6586 18.7766 39.1479 18.6443 39.4434 18.3796C39.7388 18.1149 39.8865 17.7841 39.8865 17.3871C39.8865 17.0885 39.8111 16.8146 39.6603 16.5653C39.5095 16.3161 39.2941 16.1175 39.014 15.9698C38.737 15.8221 38.4077 15.7482 38.0261 15.7482H35.9164V18.7766ZM35.9164 14.6357H37.8276C38.1477 14.6357 38.4354 14.5741 38.6909 14.451C38.9494 14.3279 39.1541 14.1555 39.3049 13.9339C39.4587 13.7093 39.5357 13.4446 39.5357 13.1399C39.5357 12.7491 39.3987 12.4213 39.1248 12.1566C38.8509 11.8919 38.4308 11.7596 37.8645 11.7596H35.9164V14.6357ZM44.9485 20.157C44.4992 20.157 44.0929 20.0739 43.7298 19.9077C43.3666 19.7384 43.0788 19.4937 42.8665 19.1737C42.6572 18.8536 42.5526 18.4612 42.5526 17.9964C42.5526 17.5964 42.6295 17.267 42.7834 17.0085C42.9373 16.75 43.145 16.5453 43.4066 16.3945C43.6682 16.2437 43.9606 16.1299 44.2837 16.0529C44.6069 15.976 44.9362 15.9175 45.2717 15.8775C45.6964 15.8282 46.0411 15.7882 46.3058 15.7575C46.5704 15.7236 46.7628 15.6697 46.8828 15.5959C47.0028 15.522 47.0629 15.402 47.0629 15.2358V15.2035C47.0629 14.8003 46.949 14.4879 46.7212 14.2663C46.4966 14.0447 46.1611 13.9339 45.7148 13.9339C45.2501 13.9339 44.8839 14.037 44.6161 14.2433C44.3514 14.4464 44.1683 14.6726 44.0668 14.9219L42.7695 14.6264C42.9234 14.1955 43.1481 13.8478 43.4435 13.5831C43.7421 13.3153 44.0852 13.1214 44.473 13.0014C44.8608 12.8783 45.2686 12.8168 45.6964 12.8168C45.9795 12.8168 46.2796 12.8506 46.5966 12.9183C46.9167 12.983 47.2152 13.103 47.4922 13.2784C47.7723 13.4538 48.0015 13.7047 48.18 14.0309C48.3585 14.354 48.4478 14.7741 48.4478 15.2912V20H47.0998V19.0305H47.0444C46.9551 19.209 46.8213 19.3845 46.6428 19.5568C46.4643 19.7292 46.235 19.8723 45.9549 19.9862C45.6748 20.1 45.3394 20.157 44.9485 20.157ZM45.2486 19.049C45.6302 19.049 45.9564 18.9736 46.2273 18.8228C46.5012 18.672 46.7089 18.475 46.8505 18.2319C46.9951 17.9857 47.0675 17.7225 47.0675 17.4425V16.5284C47.0182 16.5777 46.9228 16.6238 46.7812 16.6669C46.6428 16.7069 46.4843 16.7423 46.3058 16.7731C46.1272 16.8008 45.9534 16.8269 45.7841 16.8516C45.6148 16.8731 45.4732 16.8916 45.3594 16.907C45.0916 16.9408 44.8469 16.9978 44.6254 17.0778C44.4068 17.1578 44.2314 17.2732 44.0991 17.424C43.9698 17.5717 43.9052 17.7687 43.9052 18.0149C43.9052 18.3565 44.0314 18.6151 44.2837 18.7905C44.5361 18.9628 44.8577 19.049 45.2486 19.049ZM53.2732 20.1431C52.5869 20.1431 51.9959 19.9877 51.5004 19.6768C51.008 19.3629 50.6295 18.9305 50.3648 18.3796C50.1001 17.8287 49.9678 17.1978 49.9678 16.4869C49.9678 15.7667 50.1032 15.1312 50.374 14.5803C50.6449 14.0263 51.0265 13.5939 51.5189 13.283C52.0113 12.9722 52.5915 12.8168 53.2593 12.8168C53.7979 12.8168 54.278 12.9168 54.6997 13.1168C55.1213 13.3138 55.4614 13.5908 55.7199 13.9478C55.9815 14.3048 56.1369 14.7218 56.1862 15.1989H54.8428C54.7689 14.8665 54.5996 14.5803 54.335 14.3402C54.0734 14.1001 53.7225 13.9801 53.2824 13.9801C52.8977 13.9801 52.5607 14.0817 52.2714 14.2848C51.9852 14.4848 51.762 14.7711 51.602 15.1435C51.442 15.5128 51.3619 15.9498 51.3619 16.4545C51.3619 16.9716 51.4404 17.4179 51.5974 17.7933C51.7544 18.1688 51.9759 18.4596 52.2622 18.6658C52.5515 18.872 52.8915 18.9751 53.2824 18.9751C53.544 18.9751 53.781 18.9274 53.9933 18.832C54.2088 18.7335 54.3888 18.5935 54.5335 18.4119C54.6812 18.2304 54.7843 18.0118 54.8428 17.7564H56.1862C56.1369 18.215 55.9877 18.6243 55.7384 18.9844C55.4891 19.3445 55.1552 19.6276 54.7366 19.8338C54.3211 20.04 53.8333 20.1431 53.2732 20.1431ZM58.9318 17.5948L58.9226 15.9098H59.1626L61.9879 12.9091H63.6406L60.4183 16.3253H60.2013L58.9318 17.5948ZM57.6623 20V10.5455H59.0426V20H57.6623ZM62.1403 20L59.6012 16.63L60.5522 15.6651L63.8345 20H62.1403Z" fill="#FAFAFA"/>
<path d="M6.60828 20.5155C6.1971 20.9267 5.52952 20.9267 5.11604 20.5155L0.0156247 15.4151L1.50786 13.9229L6.60828 19.0256C7.01945 19.4367 7.01945 20.1043 6.60828 20.5155Z" fill="white"/>
<path d="M6.59265 10.3101C7.00383 10.7213 7.00383 11.3889 6.59265 11.8024L1.49224 16.9028L-9.46006e-07 15.4105L5.10041 10.3101C5.51159 9.89663 6.17917 9.89663 6.59265 10.3101Z" fill="white"/>
</svg>
