<svg width="28" height="28" viewBox="0 0 28 28" fill="none" xmlns="http://www.w3.org/2000/svg">
<path d="M14 0C11.2311 0 8.52431 0.821086 6.22202 2.35943C3.91973 3.89776 2.12532 6.08426 1.06569 8.64243C0.00606596 11.2006 -0.271181 14.0155 0.269012 16.7313C0.809205 19.447 2.14258 21.9416 4.10051 23.8995C6.05845 25.8574 8.55301 27.1908 11.2687 27.731C13.9845 28.2712 16.7994 27.9939 19.3576 26.9343C21.9157 25.8747 24.1022 24.0803 25.6406 21.778C27.1789 19.4757 28 16.7689 28 14C28 12.1615 27.6379 10.341 26.9343 8.64243C26.2308 6.94387 25.1995 5.40052 23.8995 4.1005C22.5995 2.80048 21.0561 1.76925 19.3576 1.06569C17.659 0.362121 15.8385 0 14 0ZM14 25.2C11.7849 25.2 9.61945 24.5431 7.77762 23.3125C5.93579 22.0818 4.50026 20.3326 3.65256 18.2861C2.80485 16.2395 2.58306 13.9876 3.01521 11.815C3.44737 9.6424 4.51406 7.64675 6.08041 6.0804C7.64676 4.51406 9.64241 3.44736 11.815 3.0152C13.9876 2.58305 16.2395 2.80485 18.2861 3.65255C20.3326 4.50025 22.0818 5.93578 23.3125 7.77761C24.5431 9.61944 25.2 11.7848 25.2 14C25.2 16.9704 24.02 19.8192 21.9196 21.9196C19.8192 24.02 16.9704 25.2 14 25.2Z" fill="#003459"/>
<path d="M10.6761 19V17.0114L14.4744 13.8693C14.7263 13.6605 14.9418 13.465 15.1207 13.2827C15.303 13.0971 15.4422 12.9065 15.5384 12.7109C15.6378 12.5154 15.6875 12.2983 15.6875 12.0597C15.6875 11.7978 15.6312 11.5741 15.5185 11.3885C15.4091 11.2029 15.2566 11.0604 15.0611 10.9609C14.8655 10.8582 14.6402 10.8068 14.3849 10.8068C14.1297 10.8068 13.9044 10.8582 13.7088 10.9609C13.5166 11.0637 13.3674 11.2145 13.2614 11.4134C13.1553 11.6122 13.1023 11.8542 13.1023 12.1392H10.4773C10.4773 11.4233 10.638 10.8068 10.9595 10.2898C11.281 9.77273 11.7351 9.375 12.3217 9.09659C12.9084 8.81818 13.5961 8.67898 14.3849 8.67898C15.2003 8.67898 15.9063 8.8099 16.5028 9.07173C17.1027 9.33026 17.5651 9.69484 17.8899 10.1655C18.218 10.6361 18.3821 11.188 18.3821 11.821C18.3821 12.2121 18.3009 12.6016 18.1385 12.9893C17.9761 13.3738 17.6844 13.7997 17.2635 14.267C16.8426 14.7344 16.2443 15.2912 15.4688 15.9375L14.5142 16.733V16.7926H18.4915V19H10.6761Z" fill="#003459"/>
</svg>
