<svg width="29" height="29" viewBox="0 0 29 29" fill="none" xmlns="http://www.w3.org/2000/svg">
<path d="M13.4705 19.2705C13.4081 19.3394 13.35 19.412 13.2965 19.488C13.2416 19.5688 13.1977 19.6566 13.166 19.749C13.1242 19.8312 13.0949 19.9192 13.079 20.01C13.0719 20.1065 13.0719 20.2035 13.079 20.3C13.0741 20.4902 13.1138 20.6789 13.195 20.851C13.2601 21.0309 13.364 21.1943 13.4993 21.3297C13.6347 21.465 13.7981 21.5689 13.978 21.634C14.1516 21.7107 14.3392 21.7503 14.529 21.7503C14.7188 21.7503 14.9064 21.7107 15.08 21.634C15.2599 21.5689 15.4234 21.465 15.5587 21.3297C15.694 21.1943 15.7979 21.0309 15.863 20.851C15.9274 20.6747 15.9569 20.4876 15.95 20.3C15.9511 20.1092 15.9145 19.92 15.8424 19.7433C15.7702 19.5667 15.6639 19.406 15.5295 19.2705C15.3947 19.1346 15.2343 19.0267 15.0576 18.9531C14.8809 18.8795 14.6914 18.8416 14.5 18.8416C14.3086 18.8416 14.1191 18.8795 13.9424 18.9531C13.7657 19.0267 13.6053 19.1346 13.4705 19.2705ZM14.5 0C11.6322 0 8.82875 0.85041 6.44424 2.44369C4.05972 4.03697 2.20122 6.30156 1.10375 8.95109C0.00628262 11.6006 -0.280866 14.5161 0.27862 17.3288C0.838105 20.1415 2.2191 22.7252 4.24696 24.753C6.27482 26.7809 8.85847 28.1619 11.6712 28.7214C14.4839 29.2809 17.3994 28.9937 20.0489 27.8962C22.6984 26.7988 24.963 24.9403 26.5563 22.5558C28.1496 20.1712 29 17.3678 29 14.5C29 12.5958 28.6249 10.7103 27.8963 8.95109C27.1676 7.19187 26.0995 5.5934 24.753 4.24695C23.4066 2.9005 21.8081 1.83244 20.0489 1.10375C18.2897 0.375054 16.4042 0 14.5 0ZM14.5 26.1C12.2057 26.1 9.963 25.4197 8.05539 24.145C6.14778 22.8704 4.66098 21.0587 3.783 18.9391C2.90503 16.8195 2.67531 14.4871 3.1229 12.2369C3.57049 9.98677 4.67528 7.91985 6.29757 6.29756C7.91986 4.67527 9.98678 3.57048 12.237 3.12289C14.4871 2.6753 16.8195 2.90502 18.9391 3.783C21.0588 4.66097 22.8704 6.14777 24.145 8.05538C25.4197 9.96299 26.1 12.2057 26.1 14.5C26.1 17.5765 24.8779 20.527 22.7024 22.7024C20.527 24.8779 17.5765 26.1 14.5 26.1ZM14.5 7.25C13.7359 7.24951 12.9852 7.45027 12.3234 7.83209C11.6616 8.21391 11.112 8.7633 10.73 9.425C10.6251 9.59003 10.5546 9.77459 10.5229 9.96755C10.4912 10.1605 10.4988 10.3579 10.5453 10.5479C10.5918 10.7378 10.6763 10.9164 10.7936 11.0728C10.911 11.2293 11.0587 11.3604 11.228 11.4583C11.3973 11.5561 11.5847 11.6187 11.7788 11.6423C11.973 11.6659 12.1699 11.65 12.3577 11.5955C12.5455 11.541 12.7204 11.4491 12.8717 11.3252C13.0231 11.2014 13.1479 11.0483 13.2385 10.875C13.3663 10.6537 13.5502 10.4701 13.7717 10.3428C13.9933 10.2155 14.2445 10.149 14.5 10.15C14.8846 10.15 15.2534 10.3028 15.5253 10.5747C15.7972 10.8466 15.95 11.2154 15.95 11.6C15.95 11.9846 15.7972 12.3534 15.5253 12.6253C15.2534 12.8972 14.8846 13.05 14.5 13.05C14.1154 13.05 13.7466 13.2028 13.4747 13.4747C13.2028 13.7466 13.05 14.1154 13.05 14.5V15.95C13.05 16.3346 13.2028 16.7034 13.4747 16.9753C13.7466 17.2472 14.1154 17.4 14.5 17.4C14.8846 17.4 15.2534 17.2472 15.5253 16.9753C15.7972 16.7034 15.95 16.3346 15.95 15.95V15.689C16.909 15.341 17.7152 14.6671 18.2276 13.785C18.7401 12.9028 18.9262 11.8687 18.7534 10.8632C18.5807 9.85781 18.06 8.94507 17.2825 8.28459C16.505 7.62412 15.5201 7.25791 14.5 7.25Z" fill="#002E4F"/>
</svg>
