<svg width="28" height="28" viewBox="0 0 28 28" fill="none" xmlns="http://www.w3.org/2000/svg">
<path d="M14 0C11.2311 0 8.52431 0.821086 6.22202 2.35943C3.91973 3.89776 2.12532 6.08426 1.06569 8.64243C0.00606596 11.2006 -0.271181 14.0155 0.269012 16.7313C0.809205 19.447 2.14258 21.9416 4.10051 23.8995C6.05845 25.8574 8.55301 27.1908 11.2687 27.731C13.9845 28.2712 16.7994 27.9939 19.3576 26.9343C21.9157 25.8747 24.1022 24.0803 25.6406 21.778C27.1789 19.4757 28 16.7689 28 14C28 12.1615 27.6379 10.341 26.9343 8.64243C26.2308 6.94387 25.1995 5.40052 23.8995 4.1005C22.5995 2.80048 21.0561 1.76925 19.3576 1.06569C17.659 0.362121 15.8385 0 14 0ZM14 25.2C11.7849 25.2 9.61945 24.5431 7.77762 23.3125C5.93579 22.0818 4.50026 20.3326 3.65256 18.2861C2.80485 16.2395 2.58306 13.9876 3.01521 11.815C3.44737 9.6424 4.51406 7.64675 6.08041 6.0804C7.64676 4.51406 9.64241 3.44736 11.815 3.0152C13.9876 2.58305 16.2395 2.80485 18.2861 3.65255C20.3326 4.50025 22.0818 5.93578 23.3125 7.77761C24.5431 9.61944 25.2 11.7848 25.2 14C25.2 16.9704 24.02 19.8192 21.9196 21.9196C19.8192 24.02 16.9704 25.2 14 25.2Z" fill="#003459"/>
<path d="M14.6534 19.1392C13.8513 19.1392 13.1387 19.0017 12.5156 18.7266C11.8958 18.4482 11.4086 18.0653 11.054 17.5781C10.6993 17.0909 10.5204 16.5308 10.517 15.8977H13.3011C13.3045 16.0933 13.3641 16.2689 13.4801 16.4247C13.5994 16.5772 13.7618 16.6965 13.9673 16.7827C14.1728 16.8688 14.4081 16.9119 14.6733 16.9119C14.9285 16.9119 15.1539 16.8672 15.3494 16.7777C15.545 16.6849 15.6974 16.5573 15.8068 16.3949C15.9162 16.2325 15.9692 16.0469 15.9659 15.8381C15.9692 15.6326 15.9063 15.4503 15.777 15.2912C15.651 15.1321 15.4737 15.0078 15.245 14.9183C15.0163 14.8288 14.7528 14.7841 14.4545 14.7841H13.4205V12.875H14.4545C14.7296 12.875 14.9716 12.8303 15.1804 12.7408C15.3925 12.6513 15.5566 12.527 15.6726 12.3679C15.7919 12.2088 15.8499 12.0265 15.8466 11.821C15.8499 11.6222 15.8018 11.4465 15.7024 11.294C15.603 11.1416 15.4638 11.0223 15.2848 10.9361C15.1091 10.8499 14.9053 10.8068 14.6733 10.8068C14.4214 10.8068 14.196 10.8516 13.9972 10.9411C13.8016 11.0305 13.6475 11.1548 13.5348 11.3139C13.4221 11.473 13.3641 11.6553 13.3608 11.8608H10.7159C10.7192 11.2377 10.8899 10.6875 11.228 10.2102C11.5694 9.73295 12.0367 9.35843 12.63 9.08665C13.2232 8.81487 13.9044 8.67898 14.6733 8.67898C15.4257 8.67898 16.0902 8.80658 16.6669 9.06179C17.2469 9.317 17.6993 9.66832 18.0241 10.1158C18.3523 10.5599 18.5147 11.0687 18.5114 11.642C18.518 12.2121 18.3224 12.6795 17.9247 13.044C17.5303 13.4086 17.0298 13.6241 16.4233 13.6903V13.7699C17.2453 13.8594 17.8634 14.1113 18.2777 14.5256C18.692 14.9366 18.8958 15.4536 18.8892 16.0767C18.8925 16.6733 18.7135 17.2019 18.3523 17.6626C17.9943 18.1233 17.4955 18.4846 16.8558 18.7464C16.2195 19.0083 15.4853 19.1392 14.6534 19.1392Z" fill="#003459"/>
</svg>
